<svg width="300" height="112" viewBox="0 0 300 112" fill="none" xmlns="http://www.w3.org/2000/svg">
<path d="M1.06836 48.7041L33.8714 20.1901C43.1877 12.0904 56.7559 12.0408 66.0871 19.4468C57.6058 16.0944 47.5956 17.4696 40.2367 23.8646L7.43371 52.3811" fill="#F89828"/>
<path d="M13.1406 55.6754L45.9436 27.1589C55.26 19.0591 68.8282 19.0096 78.1594 26.4156C69.6805 23.0656 59.6679 24.4383 52.309 30.8334L19.5085 59.3499" fill="#F89828"/>
<path d="M25.2148 62.6471L58.0178 34.1306C67.3342 26.0333 80.9024 25.9813 90.2336 33.3873C81.7523 30.0374 71.7421 31.4101 64.3832 37.8076L31.5802 66.3216" fill="#F89828"/>
<path d="M105.611 64.1687L72.8081 92.6876C63.4917 100.782 49.9186 100.834 40.5898 93.4285C49.0712 96.7809 59.0813 95.4057 66.4378 89.0106L99.2433 60.4941" fill="#DB0862"/>
<path d="M93.5394 57.1979L60.7364 85.7144C51.42 93.8142 37.8444 93.8613 28.5156 86.4578C36.9995 89.8102 47.0096 88.435 54.3636 82.0374L87.1715 53.5234" fill="#DB0862"/>
<path d="M81.4651 50.2272L48.6621 78.7437C39.3457 86.841 25.775 86.8906 16.4463 79.4871C24.9252 82.8395 34.9378 81.4643 42.2942 75.0692L75.0997 46.5527" fill="#DB0862"/>
<path fill-rule="evenodd" clip-rule="evenodd" d="M144.657 59.6129C144.657 64.2859 141.305 68.959 136.399 68.959C133.52 68.959 131.803 67.3261 131.803 64.831C131.803 61.714 134.142 58.6763 144.657 58.6763V59.6129ZM154.863 75.8149C154.707 72.6186 154.628 68.959 154.628 65.842V49.7167C154.628 41.3048 151.124 36.2402 138.658 36.2402C133.673 36.2402 128.688 37.2561 124.79 38.656L125.65 46.9912C128.921 45.1205 133.596 43.9535 137.1 43.9535C142.712 43.9535 144.657 46.0571 144.657 50.1082V52.2118C131.493 52.2118 122.298 57.1178 122.298 66.3896C122.298 72.6186 126.351 76.593 133.359 76.593C139.127 76.593 143.879 73.5552 145.745 69.1944L145.824 69.2712C145.514 71.2955 145.435 73.5552 145.435 75.8149" fill="#A1A0A4"/>
<path d="M190.83 74.7249L190.054 66.2311C187.948 67.3263 185.069 67.8689 182.418 67.8689C175.797 67.8689 173.228 63.3495 173.228 56.7289C173.228 49.4047 176.422 44.7317 182.73 44.7317C185.223 44.7317 187.638 45.356 189.745 46.1365L190.753 37.4892C188.258 36.7855 185.456 36.3965 182.809 36.3965C169.097 36.3965 162.789 45.6682 162.789 57.7423C162.789 70.9067 169.486 76.5163 180.24 76.5163C184.368 76.5163 188.181 75.7358 190.83 74.7249Z" fill="#A1A0A4"/>
<path fill-rule="evenodd" clip-rule="evenodd" d="M208.578 37.1009H198.608V75.8158H208.578V37.1009ZM209.822 26.0377C209.822 22.6878 207.017 20.0391 203.59 20.0391C200.164 20.0391 197.436 22.7646 197.436 26.0377C197.436 29.3876 200.164 32.1132 203.59 32.1132C207.017 32.1132 209.822 29.3876 209.822 26.0377Z" fill="#A1A0A4"/>
<path d="M252.95 75.8149V48.629C252.95 41.8499 250.143 36.2402 241.419 36.2402C235.108 36.2402 230.591 39.4365 228.252 44.0328L228.175 43.9535C228.564 41.9292 228.72 38.889 228.72 37.1H219.295V75.8149H229.265V57.1178C229.265 50.3411 233.24 44.5779 238.304 44.5779C241.961 44.5779 243.054 46.9912 243.054 51.0423V75.8149" fill="#A1A0A4"/>
<path fill-rule="evenodd" clip-rule="evenodd" d="M288.514 56.2613C288.514 64.1306 284.778 68.105 279.872 68.105C274.109 68.105 271.222 64.0514 271.222 56.1077C271.222 48.1615 275.583 44.7323 280.026 44.7323C285.871 44.7323 288.514 48.7859 288.514 56.2613ZM298.8 55.7187C298.8 42.3982 291.708 36.3203 280.727 36.3203C268.962 36.3203 260.939 45.0445 260.939 57.1186C260.939 70.9073 268.026 76.5938 279.012 76.5938C290.623 76.5938 298.8 67.8696 298.8 55.7187Z" fill="#A1A0A4"/>
</svg>
