<svg width="300" height="112" viewBox="0 0 300 112" fill="none" xmlns="http://www.w3.org/2000/svg">
<path fill-rule="evenodd" clip-rule="evenodd" d="M32.5395 26.7695C48.6834 26.7695 61.7705 39.8566 61.7705 56.0005C61.7705 72.1443 48.6834 85.2314 32.5395 85.2314C16.3957 85.2314 3.30859 72.1443 3.30859 56.0005C3.30859 39.8566 16.3957 26.7695 32.5395 26.7695Z" fill="white"/>
<path fill-rule="evenodd" clip-rule="evenodd" d="M296.16 48.3572C294.917 54.8885 293.616 61.4094 292.425 67.9502C292.175 69.3226 291.662 69.7982 290.239 69.7087C288.046 69.5707 285.838 69.6724 283.406 69.6724C284.121 65.9654 284.783 62.5293 285.445 59.0909C283.303 59.0909 281.315 59.03 279.333 59.105C276.411 59.2155 276.409 59.256 275.85 62.1914C275.456 64.2589 275.049 66.3243 274.694 68.3983C274.538 69.3111 274.179 69.8372 273.152 69.6697C271.623 69.4204 270.01 69.4207 268.576 68.9132C266.852 68.3032 266.307 67.0315 266.647 65.2508C267.975 58.2853 269.331 51.3248 270.717 44.3705C270.792 43.9918 271.223 43.3981 271.503 43.3898C274.096 43.3142 276.691 43.3452 279.45 43.3452C278.78 46.9901 278.143 50.4611 277.463 54.1624C280.411 53.9887 283.092 53.8673 285.763 53.6269C286.094 53.597 286.546 52.9731 286.639 52.5572C287.233 49.8865 287.773 47.2028 288.261 44.5108C288.42 43.6323 288.739 43.2834 289.689 43.313C292.036 43.3854 294.387 43.3366 297 43.3366C296.702 45.1256 296.466 46.7479 296.16 48.3572ZM259.045 68.5046C258.864 69.4632 258.483 70.0307 257.444 69.9905C256.232 69.9441 254.978 70.0868 253.817 69.8224C251.678 69.335 251.089 67.5549 250.954 65.5371C250.784 65.449 250.614 65.3613 250.444 65.2733C250.054 65.8295 249.745 66.4699 249.261 66.9281C245.975 70.0413 240.944 70.716 237.614 68.4786C235.267 66.9018 233.982 64.6642 234.433 61.8384C235.363 55.9995 236.465 50.1872 237.543 44.3726C237.613 43.9918 238.063 43.3945 238.353 43.3851C240.793 43.3056 243.236 43.3396 245.835 43.3396C245.363 45.9704 244.94 48.4178 244.48 50.8578C243.892 53.9763 243.251 57.0851 242.676 60.2057C242.138 63.1216 244.149 65.0296 246.95 63.996C248.64 63.3724 250.107 62.1119 251.608 61.0455C251.934 60.8136 252.052 60.2024 252.143 59.7419C253.134 54.708 254.124 49.6738 255.053 44.6284C255.241 43.6051 255.654 43.2743 256.701 43.3127C258.998 43.3972 261.3 43.339 263.804 43.339C263.467 45.262 263.182 47.0253 262.845 48.7788C261.582 55.3546 260.289 61.9249 259.045 68.5046ZM220.947 55.1328C220.198 55.8359 220.235 56.3448 220.74 57.1276C223.392 61.2387 226.003 65.3761 228.732 69.6688C227.285 69.6688 225.737 69.4975 224.24 69.7025C220.42 70.225 218.112 68.4736 216.576 65.1784C215.836 63.5916 214.848 62.1196 213.794 60.2849C211.791 62.6442 209.811 64.6913 208.178 66.9839C206.655 69.122 204.88 70.0782 202.253 69.706C200.875 69.5108 199.446 69.6715 197.649 69.6715C199.68 67.4651 201.448 65.532 203.23 63.6122C205.065 61.6354 206.87 59.6297 208.775 57.722C209.559 56.9362 209.562 56.3301 209.016 55.4317C206.932 51.9992 204.908 48.5294 202.869 45.0694C202.58 44.5788 202.328 44.0663 201.943 43.349C205.031 43.349 207.911 43.3106 210.787 43.3963C211.157 43.4072 211.607 44.0051 211.85 44.4281C213.234 46.8436 214.567 49.2886 216.034 51.9351C216.513 51.4796 216.902 51.1532 217.24 50.781C219.249 48.567 221.235 46.3323 223.259 44.1315C223.569 43.7942 224.026 43.378 224.424 43.3682C227.158 43.3015 229.894 43.3331 232.63 43.3331C232.709 43.4533 232.788 43.5735 232.866 43.6935C231.568 44.9123 230.255 46.1157 228.975 47.3532C226.296 49.9435 223.664 52.5835 220.947 55.1328ZM192.411 68.25C192.184 69.4868 191.617 70.1101 190.392 70.0617C189.227 70.0153 188.028 70.0262 186.912 69.745C185.522 69.395 184.699 68.3667 184.503 66.9C184.442 66.4433 184.324 65.994 184.184 65.3016C182.351 67.4315 180.364 68.8588 177.849 69.4995C174.2 70.4289 171.031 69.3628 168.874 66.4289C167.858 65.047 167.463 63.4616 167.737 61.8345C168.73 55.9552 169.82 50.0921 170.914 44.2305C170.976 43.9014 171.4 43.3933 171.666 43.3862C174.108 43.3207 176.553 43.3478 179.148 43.3478C178.585 46.4454 178.065 49.3719 177.519 52.2931C177.016 54.9836 176.468 57.6658 175.969 60.3569C175.479 62.9996 177.34 64.7324 180.011 64.1499C183.027 63.4923 185.233 61.1327 185.784 58.127C186.622 53.5592 187.51 49.0006 188.432 44.4491C188.515 44.0364 188.989 43.3948 189.3 43.3842C191.843 43.2976 194.391 43.3354 197.154 43.3354C196.633 46.1414 196.158 48.7714 195.653 51.3957C194.573 57.0139 193.444 62.6232 192.411 68.25ZM145.958 68.105C145.105 67.6329 144.315 67.0483 143.196 66.3208C142.758 68.5197 142.355 70.5175 141.964 72.517C141.654 74.1022 141.391 75.6976 141.028 77.2703C140.952 77.5973 140.533 78.0847 140.262 78.0912C137.667 78.1536 135.071 78.1284 132.348 78.1284C133.169 73.8062 133.952 69.6399 134.752 65.4762C136.017 58.8953 137.319 52.3212 138.541 45.7326C138.788 44.4001 139.328 43.9094 140.745 43.8524C144.858 43.687 148.963 43.0906 153.07 43.0941C158.713 43.0988 162.271 46.3441 162.999 51.9313C163.591 56.4727 162.715 60.7971 160.359 64.7876C156.936 70.5872 150.57 70.6554 145.958 68.105ZM149.069 48.4905C146.653 48.4949 146.619 48.4881 146.147 50.8607C145.422 54.4992 144.735 58.1456 144.074 61.7961C144.006 62.1692 144.083 62.7402 144.328 62.9712C146.714 65.2216 150.776 64.7658 152.638 62.098C154.172 59.8994 154.941 57.4118 154.931 54.7907C154.916 50.8581 153.455 48.2795 149.069 48.4905ZM122.097 54.633C121.429 55.2572 121.275 55.7576 121.745 56.6405C122.919 58.8418 123.848 61.1743 125.052 63.3576C126.22 65.4789 127.608 67.4802 128.964 69.6369C126.271 69.6369 123.579 69.7861 120.915 69.5805C119.34 69.4591 118.435 68.0887 117.813 66.7107C116.544 63.8997 115.33 61.0644 114.089 58.2407C113.919 57.8522 113.724 57.4738 113.54 57.091C113.407 57.1132 113.274 57.1356 113.14 57.1581C112.529 60.2541 111.931 63.3532 111.299 66.4451C111.086 67.4852 111.038 69.1962 110.477 69.3982C109.225 69.8502 107.658 69.7589 106.291 69.5046C103.574 68.9988 102.598 67.3053 103.145 64.3558C104.224 58.5361 105.337 52.7229 106.467 46.9127C107.162 43.334 107.187 43.3387 110.895 43.3381C112.454 43.3381 114.013 43.3381 115.748 43.3381C115.001 47.3582 114.292 51.1753 113.582 54.9925C113.719 55.0941 113.856 55.1957 113.993 55.2973C114.538 54.6492 115.064 53.9837 115.632 53.356C118.364 50.3364 121.121 47.3399 123.834 44.3043C124.471 43.5907 125.148 43.2858 126.125 43.3133C128.565 43.3824 131.008 43.336 133.621 43.336C132.03 44.9678 130.611 46.4817 129.127 47.9295C126.81 50.1911 124.464 52.4237 122.097 54.633ZM95.5843 68.1274C95.3539 69.4384 94.7711 69.9311 93.4675 69.9406C90.3377 69.9627 89.0755 69.0437 87.9559 65.5799C87.4691 66.0924 87.052 66.5361 86.6302 66.9754C83.8218 69.8986 78.0113 70.6835 74.8071 68.5522C72.4061 66.955 71.1982 64.6077 71.3323 61.8218C71.4842 58.6634 73.367 56.4523 76.391 55.6713C79.8909 54.7677 83.4972 54.272 87.0588 53.6062C87.3468 53.5524 87.6756 53.6239 87.9335 53.5146C88.7187 53.1817 89.9909 53.8514 90.1832 52.2624C90.4199 50.3107 90.0352 49.083 88.5739 48.406C86.3197 47.3611 83.9654 47.5942 81.6391 48.0772C79.9698 48.4237 78.3327 48.9232 76.4197 49.423C76.7113 47.6879 76.9461 46.1128 77.2699 44.556C77.318 44.3247 77.7614 44.0787 78.0612 44.0101C82.8189 42.9195 87.6139 42.1577 92.4959 43.0229C97.0114 43.8234 99.6573 47.458 98.6343 51.9971C97.4318 57.3326 96.532 62.7379 95.5843 68.1274ZM88.885 57.3016C86.2019 57.4727 83.5244 57.7427 81.0858 58.9455C79.8466 59.557 79.348 60.8092 79.6815 62.2017C80.0129 63.5842 81.0652 64.2358 82.4063 64.224C86.4184 64.1877 89.3727 62.3485 88.885 57.3016Z" fill="#1A69A4"/>
<path fill-rule="evenodd" clip-rule="evenodd" d="M56.2765 63.3894C55.9099 64.5616 55.382 65.0552 54.1065 64.9556C51.9521 64.7876 49.7824 64.8257 47.6239 64.6989C43.5359 64.4588 41.7883 62.1697 42.6615 58.2318C43.1067 56.2242 43.6245 54.2329 44.0842 52.2287C45.6055 45.5931 41.0791 39.899 34.6609 39.2134C31.5436 38.8805 28.3822 38.9389 25.2395 38.8932C24.893 38.8881 24.3116 39.3029 24.2259 39.6249C23.6741 41.6992 23.2302 43.8021 22.6781 46.2143C24.9647 46.2143 26.9752 46.1499 28.9792 46.2365C30.341 46.2956 31.745 46.3948 33.0392 46.7797C35.281 47.4464 36.3666 49.2785 35.9258 51.5655C35.4355 54.1098 34.7714 56.621 34.1549 59.266C33.7387 59.302 33.3151 59.3696 32.8912 59.3699C25.1222 59.377 17.3529 59.362 9.58419 59.393C8.57215 59.3971 8.09981 59.1626 8.00085 58.0439C6.69518 43.2538 18.808 30.583 33.6468 31.2603C49.8651 32.0009 61.0995 47.9749 56.2765 63.3894ZM33.8586 63.4733C34.0816 64.0928 34.2601 64.6283 34.4654 65.1536C35.893 68.8038 38.4798 71.1992 42.3706 71.8772C44.5801 72.2624 46.863 72.2299 49.1127 72.3844C49.6205 72.4192 50.1283 72.4502 51.0571 72.5105C45.2962 78.4182 38.681 81.1069 30.9014 80.5143C22.5847 79.8813 16.2242 75.8092 11.7474 68.8437C19.3539 75.5637 30.2338 72.7501 33.8586 63.4733Z" fill="#E31D0A"/>
</svg>
