<svg width="300" height="112" viewBox="0 0 300 112" fill="none" xmlns="http://www.w3.org/2000/svg">
<g clip-path="url(#clip0)">
<path fill-rule="evenodd" clip-rule="evenodd" d="M299.696 25.6183C293.178 36.8191 286.66 48.0192 280.135 59.2158C279.677 60.0021 279.319 60.853 278.696 61.5384C278.522 61.7691 278.252 61.8601 278.014 61.9925C272.099 65.2961 266.182 68.5974 260.261 71.8915C260.007 72.0331 259.787 72.2929 259.441 72.2146C259.44 72.2096 259.441 72.2058 259.441 72.2012C259.35 72.225 259.295 72.2872 259.263 72.3735C258.848 72.4184 258.878 72.0377 258.773 71.8239C256.225 66.6198 253.69 61.4087 251.148 56.2011C249.252 52.3161 247.344 48.4367 245.45 44.5497C244.081 41.7385 242.727 38.92 241.371 36.1026C241.286 35.9249 241.085 35.7487 241.295 35.5261C242.811 34.3817 244.438 33.4015 246.022 32.3588C249.681 29.9505 253.353 27.5622 257.027 25.1769C257.325 24.9839 257.575 24.67 257.985 24.6892C258.29 24.6715 258.596 24.6385 258.901 24.6385C272.282 24.6362 285.664 24.6362 299.045 24.6381C299.351 24.6381 299.657 24.665 299.963 24.6792C299.972 24.7421 299.981 24.8054 299.99 24.8684L299.992 24.8703C300.044 25.1789 299.831 25.3857 299.696 25.6183Z" fill="#D6B378"/>
<path fill-rule="evenodd" clip-rule="evenodd" d="M272.181 50.1445C272.973 51.1654 273.503 52.3429 274.138 53.4558C275.672 56.142 277.179 58.8434 278.696 61.5384C278.522 61.7691 278.252 61.86 278.014 61.9924C272.099 65.2961 266.182 68.5974 260.261 71.8914C260.007 72.033 259.787 72.2929 259.441 72.2146C259.407 72.0492 259.494 71.9217 259.571 71.7897C263.775 64.5749 267.978 57.3597 272.181 50.1445Z" fill="#181717"/>
<path fill-rule="evenodd" clip-rule="evenodd" d="M259.263 72.3728C258.848 72.4177 258.878 72.0369 258.773 71.8232C256.225 66.619 253.69 61.408 251.148 56.2004C249.252 52.3153 247.344 48.436 245.45 44.549C244.081 41.7377 242.727 38.9192 241.371 36.1018C241.286 35.9245 241.085 35.748 241.295 35.5254C248.881 35.5273 256.466 35.5288 264.051 35.5304C264.109 35.558 264.166 35.5856 264.223 35.6133C264.441 36.3237 264.879 36.9205 265.237 37.5575C267.547 41.6633 269.861 45.7667 272.173 49.8706C272.176 49.9619 272.178 50.0529 272.18 50.1438C267.978 57.359 263.775 64.5742 259.571 71.789C259.494 71.921 259.407 72.0485 259.441 72.2139L259.457 72.192C259.353 72.2112 259.297 72.2803 259.263 72.3728Z" fill="#D6B378"/>
<path fill-rule="evenodd" clip-rule="evenodd" d="M257.985 24.6883C259.98 28.2161 261.974 31.7435 263.966 35.2724C264.01 35.3499 264.024 35.444 264.052 35.5303C256.466 35.5288 248.881 35.5269 241.295 35.5253C242.811 34.3809 244.438 33.4007 246.022 32.3579C249.681 29.9497 253.354 27.5614 257.028 25.1761C257.325 24.9831 257.575 24.6692 257.985 24.6883Z" fill="#A88F61"/>
<path fill-rule="evenodd" clip-rule="evenodd" d="M299.992 24.8703C299.648 24.8066 299.417 25.0511 299.159 25.195C293.138 28.5531 287.12 31.9189 281.101 35.2813C280.887 35.4006 280.664 35.5031 280.445 35.6136C280.201 35.6002 279.958 35.5753 279.714 35.5753C274.794 35.573 269.874 35.573 264.953 35.5753C264.71 35.5753 264.466 35.6006 264.223 35.614C264.166 35.5864 264.109 35.5588 264.051 35.5311C264.024 35.4448 264.01 35.3508 263.966 35.2732C261.974 31.7443 259.98 28.2165 257.985 24.6892C258.29 24.6715 258.596 24.6385 258.901 24.6385C272.283 24.6362 285.664 24.6362 299.046 24.6381C299.351 24.6381 299.657 24.665 299.963 24.6788C299.972 24.7421 299.981 24.8054 299.99 24.8684L299.992 24.8703Z" fill="#181717"/>
<path fill-rule="evenodd" clip-rule="evenodd" d="M272.181 50.144C272.178 50.0531 272.176 49.9621 272.174 49.8712C272.452 49.6217 272.614 49.2913 272.799 48.9754C274.896 45.3816 277.008 41.7959 279.084 38.1898C279.567 37.3497 280.189 36.5753 280.445 35.6131C280.664 35.5026 280.887 35.4001 281.101 35.2807C287.12 31.9184 293.138 28.5526 299.159 25.1944C299.417 25.0505 299.648 24.806 299.992 24.8698C300.044 25.1783 299.831 25.3852 299.696 25.6178C293.178 36.8182 286.66 48.0186 280.135 59.2152C279.677 60.0016 279.319 60.8525 278.697 61.5379C277.179 58.843 275.672 56.1415 274.138 53.4554C273.503 52.3424 272.973 51.1653 272.181 50.144Z" fill="#A88F61"/>
<path fill-rule="evenodd" clip-rule="evenodd" d="M264.224 35.6147C264.467 35.6013 264.711 35.5759 264.954 35.5759C269.874 35.5736 274.795 35.5736 279.715 35.5759C279.959 35.5759 280.202 35.6009 280.446 35.6143C280.189 36.5765 279.568 37.351 279.084 38.1911C277.008 41.7975 274.896 45.3829 272.799 48.9766C272.615 49.2925 272.453 49.6229 272.174 49.8724C269.862 45.7682 267.548 41.6647 265.238 37.559C264.88 36.9219 264.442 36.3251 264.224 35.6147Z" fill="#E43D2D"/>
<path fill-rule="evenodd" clip-rule="evenodd" d="M242.388 87.465C242.054 87.4692 241.888 87.3288 241.765 87.0482C241.456 86.347 241.136 85.6512 240.819 84.9543C239.968 83.0856 239.098 81.2258 238.279 79.3437C238.055 78.8286 237.798 78.6118 237.206 78.6153C232.327 78.641 227.448 78.6414 222.568 78.6149C221.977 78.6118 221.713 78.8287 221.487 79.3383C220.383 81.8314 219.229 84.3026 218.126 86.7961C217.91 87.2839 217.664 87.493 217.106 87.4727C215.821 87.4255 214.534 87.4577 213.078 87.4577C218.675 75.1953 224.255 63.0458 229.883 50.7535C235.499 63.0136 241.058 75.1481 246.697 87.4577C245.14 87.4577 243.764 87.4473 242.388 87.465ZM229.881 60.4238C227.772 65.228 225.735 69.8684 223.679 74.5494C227.853 74.5494 231.915 74.5494 236.09 74.5494C234.019 69.8369 231.982 65.2031 229.881 60.4238ZM209.148 87.4489C208.578 87.4282 207.879 87.7122 207.469 87.3034C207.111 86.9454 207.201 86.2649 207.106 85.7249C206.087 79.9888 205.07 74.2524 204.053 68.5159C203.814 67.1669 203.579 65.8171 203.248 64.4478C201.38 68.3321 199.695 72.2786 197.956 76.2005C196.207 80.145 194.482 84.1 192.683 88.195C189.149 80.1623 185.686 72.2928 182.175 64.3146C181.833 64.9129 181.85 65.4456 181.761 65.9399C180.618 72.3392 179.497 78.7423 178.369 85.1442C178.257 85.7783 178.122 86.4088 178.029 87.0455C177.985 87.3499 177.852 87.4619 177.553 87.46C176.207 87.4523 174.86 87.4566 173.411 87.4566C175.802 75.259 178.175 63.151 180.547 51.0429C180.606 51.0337 180.664 51.0241 180.722 51.0145C184.683 60.0933 188.643 69.1718 192.682 78.4284C196.706 69.2044 200.667 60.1248 204.629 51.0455C204.694 51.0582 204.76 51.0709 204.826 51.0835C207.193 63.1663 209.561 75.2487 211.953 87.4577C210.963 87.4577 210.055 87.4823 209.148 87.4489ZM158.057 88.058C148.642 89.2093 140.023 82.3687 138.454 72.9072C136.807 62.9763 143.345 53.5448 153.21 51.8308C159.818 50.6821 165.511 52.6912 170.14 57.5926C170.266 57.7261 170.376 57.8762 170.505 58.0074C170.722 58.23 170.697 58.4146 170.472 58.6257C169.621 59.4236 168.777 60.228 167.941 61.0409C167.715 61.26 167.576 61.1741 167.427 60.9695C167.318 60.821 167.203 60.6759 167.08 60.5389C163.789 56.863 159.708 55.0058 154.772 55.694C149.258 56.4627 145.443 59.6082 143.501 64.8177C140.433 73.0481 145.612 81.2454 152.351 83.5197C159.345 85.8803 165.611 81.0953 167.21 76.4852C167.402 75.9326 167.559 75.373 167.654 74.7981C167.708 74.4688 167.765 74.1311 167.678 73.7911C167.389 73.6268 167.076 73.7078 166.777 73.7066C164.321 73.6993 161.864 73.7051 159.408 73.7009C158.672 73.6997 158.668 73.6917 158.664 72.9471C158.66 72.1181 158.659 71.2892 158.664 70.4602C158.669 69.6888 158.673 69.683 159.491 69.6819C162.347 69.6792 165.203 69.6807 168.058 69.6811C169.378 69.6811 170.699 69.6884 172.019 69.6769C172.407 69.6734 172.635 69.7256 172.644 70.2157C172.722 74.2796 171.878 78.0895 169.484 81.4419C166.683 85.3634 162.817 87.4757 158.057 88.058ZM134.326 55.1709C134.326 60.0795 134.326 64.9878 134.326 69.896C134.326 75.4179 134.328 80.9399 134.325 86.4618C134.325 87.5671 134.431 87.4531 133.351 87.4569C132.4 87.4608 131.449 87.4397 130.499 87.4658C130.062 87.4777 129.868 87.3395 129.919 86.8916C129.94 86.7101 129.923 86.524 129.923 86.3397C129.923 75.3266 129.921 64.3134 129.925 53.3007C129.925 52.1532 129.75 52.2775 130.941 52.2694C131.862 52.2637 132.783 52.2867 133.702 52.261C134.16 52.2483 134.367 52.3596 134.338 52.8708C134.294 53.6353 134.326 54.4041 134.326 55.1709ZM114.249 65.3923C115.471 65.8866 116.703 66.3556 117.925 66.8476C119.236 67.3761 120.495 68.0089 121.669 68.8026C124.715 70.8608 126.158 73.7381 126.082 77.3998C125.963 83.1436 121.986 87.4447 116.186 88.0933C110.298 88.7522 105.123 84.889 104.102 79.0727C103.972 78.3339 103.969 78.3217 104.664 78.1716C105.859 77.9129 107.06 77.6715 108.26 77.4225C108.536 77.6351 108.423 77.9436 108.45 78.1958C108.83 81.6821 111.789 84.1165 115.334 84.042C118.641 83.9725 121.363 81.3179 121.648 77.9997C121.863 75.4862 120.914 73.5873 118.841 72.2003C117.841 71.5313 116.755 71.0355 115.655 70.5653C114.246 69.9636 112.816 69.409 111.447 68.7155C110.432 68.2016 109.472 67.604 108.574 66.9002C104.473 63.6852 104.888 57.9111 107.748 54.8635C109.504 52.9913 111.699 51.9743 114.204 51.6427C117.463 51.2113 120.431 51.8953 122.909 54.183C123.726 54.9364 124.402 55.803 124.962 56.8607C123.874 57.5116 122.796 58.1494 121.727 58.8015C121.506 58.9362 121.396 58.8422 121.282 58.676C121.161 58.4987 121.04 58.321 120.917 58.1452C118.561 54.7848 113.761 55.0477 111.342 57.4249C109.426 59.3085 109.523 62.0691 111.562 63.8172C112.362 64.5038 113.278 64.9993 114.249 65.3923ZM103.523 87.4523C102.449 87.4639 101.372 87.417 100.301 87.4734C99.6828 87.5057 99.3835 87.3084 99.1325 86.7339C98.0644 84.2915 96.9138 81.8847 95.8492 79.4408C95.5744 78.8102 95.2424 78.6072 94.557 78.6122C89.7681 78.6456 84.9788 78.6456 80.1903 78.6114C79.5271 78.6068 79.2331 78.834 78.9791 79.4116C77.9186 81.8245 76.7826 84.2044 75.7368 86.6234C75.4451 87.2973 75.0794 87.5141 74.3644 87.4754C73.172 87.4109 71.9734 87.4577 70.5914 87.4577C76.212 75.1873 81.7715 63.05 87.4047 50.7527C93.0337 63.0408 98.5883 75.1669 104.134 87.272C103.949 87.5598 103.713 87.45 103.523 87.4523ZM87.4051 60.4245C85.3004 65.213 83.2732 69.8246 81.1996 74.5421C83.7925 74.724 92.8303 74.6423 93.5557 74.4228C91.5297 69.812 89.5071 65.2088 87.4051 60.4245ZM74.0017 56.2984C72.2524 56.277 70.5024 56.29 68.7527 56.29C66.7267 56.2904 64.701 56.2865 62.675 56.2923C61.9627 56.2942 61.9516 56.3046 61.9504 56.9812C61.9454 59.8051 61.9458 62.6286 61.95 65.4525C61.9512 66.1326 61.9612 66.1433 62.6635 66.1441C66.1322 66.1479 69.6008 66.146 73.0699 66.146C73.2844 66.146 73.5001 66.1572 73.7143 66.1437C74.0086 66.1257 74.1809 66.2213 74.1802 66.5452C74.1771 67.6194 74.1752 68.6936 74.1821 69.7678C74.184 70.0856 74.0363 70.19 73.7331 70.1854C72.9352 70.1743 72.1369 70.1819 71.3386 70.1819C68.5454 70.1823 65.7518 70.1792 62.9586 70.1835C61.8142 70.1854 61.9508 70.0649 61.95 71.2347C61.9458 76.2684 61.9481 81.3022 61.9481 86.3359C61.9481 86.5508 61.9355 86.7665 61.9504 86.9803C61.9754 87.3349 61.8257 87.4669 61.4695 87.4623C60.3032 87.4481 59.1365 87.4508 57.9702 87.4596C57.6486 87.4623 57.5296 87.3195 57.5434 87.0152C57.5534 86.8007 57.5442 86.5854 57.5442 86.3708C57.5442 80.8458 57.5442 75.3212 57.5442 69.7962C57.5442 64.333 57.5442 58.8694 57.5442 53.4058C57.5442 53.1913 57.5584 52.9752 57.5415 52.7618C57.5146 52.418 57.6359 52.2391 58.0039 52.2668C58.187 52.2806 58.372 52.2687 58.5562 52.2687C63.5596 52.2683 68.5635 52.2683 73.5669 52.2687C73.7511 52.2687 73.9369 52.284 74.1192 52.2656C74.5394 52.2242 74.6338 52.4341 74.6261 52.8125C74.607 53.7635 74.5974 54.7161 74.6292 55.6667C74.6457 56.1499 74.4803 56.3042 74.0017 56.2984ZM53.4319 87.4692C48.7965 87.4493 44.1615 87.4535 39.5261 87.4642C39.1063 87.4654 38.8806 87.3668 38.9324 86.9024C38.9562 86.6901 38.9363 86.4729 38.9363 86.2584C38.9363 80.7641 38.9363 75.2698 38.9363 69.7755C38.9363 64.2812 38.9363 58.7869 38.9363 53.2926C38.9363 53.0781 38.9447 52.8628 38.9359 52.6482C38.924 52.37 39.0621 52.2687 39.325 52.2691C40.5528 52.2725 41.7809 52.2744 43.0086 52.2671C43.3007 52.2656 43.3713 52.4161 43.3621 52.6686C43.3533 52.9138 43.3613 53.1598 43.3613 53.4051C43.3613 62.951 43.3613 72.4969 43.3613 82.0429C43.3613 82.1964 43.3613 82.3499 43.3613 82.5034C43.3629 83.469 43.2884 83.4011 44.2532 83.4011C47.2614 83.4011 50.2699 83.3992 53.278 83.4026C54.0168 83.4034 54.021 83.4114 54.0248 84.1491C54.0295 85.0391 54.0095 85.9299 54.0329 86.8191C54.0448 87.2658 53.9515 87.4711 53.4319 87.4692ZM32.1993 87.4589C31.8305 87.4608 31.7671 87.1822 31.6547 86.935C31.0579 85.624 30.4607 84.3133 29.8628 83.0031C29.2779 81.7205 28.675 80.4455 28.1154 79.1518C27.9419 78.7507 27.7197 78.6191 27.2864 78.6203C22.3141 78.6352 17.3413 78.6364 12.369 78.6191C11.8969 78.6176 11.6682 78.7853 11.4825 79.2017C10.3718 81.6925 9.21466 84.1633 8.12432 86.6629C7.84838 87.2958 7.50451 87.5122 6.8183 87.4757C5.59785 87.4117 4.37165 87.4577 3 87.4577C8.61672 75.1953 14.1874 63.0347 19.8133 50.752C25.4404 63.0374 31.0003 75.1758 36.6251 87.4558C35.0512 87.4558 33.6254 87.4516 32.1993 87.4589ZM19.8145 60.423C17.7121 65.2061 15.6753 69.8407 13.604 74.5533C17.7858 74.5533 21.8451 74.5533 26.0195 74.5533C23.9586 69.8607 21.9226 65.2242 19.8145 60.423Z" fill="#181717"/>
</g>
<defs>
<clipPath id="clip0">
<rect width="300" height="112" fill="white"/>
</clipPath>
</defs>
</svg>
