<svg width="230" height="112" viewBox="0 0 230 112" fill="none" xmlns="http://www.w3.org/2000/svg">
<path d="M134.616 47.2093C131.972 43.5465 128.377 41.3488 123.407 41.3488C115.264 41.3488 108.602 47.9419 108.602 56.1047C108.602 64.2674 115.264 70.8605 123.407 70.8605C129.329 70.8605 134.405 67.407 136.731 62.3837H121.503V50.2442H149.421V31.407H174.271V43.5465H161.264V50.2442H174.271V62.3837H161.264V68.6628H174.271V80.4884C174.694 80.4884 149.421 80.4884 149.421 80.4884V62.6977C146.46 76.093 135.568 83 123.407 83C111.352 83 101.2 75.8837 98.3448 63.4302V80.6977H86.1839V52.0233C86.1839 52.0233 79.0988 58.1977 79.0988 80.6977H66.5149C66.5149 58.1977 59.4299 52.0233 59.4299 52.0233V80.6977H47.1632V30.8837C61.2276 30.8837 70.5333 46.5814 72.754 55.7907C74.9747 46.5814 84.2805 30.8837 98.3448 30.8837V47.4186C100.777 36.4302 111.88 29 123.513 29C135.356 29 145.825 37.8953 148.046 47.2093H134.616Z" fill="#0063C3"/>
<path d="M201.237 80.6977C199.439 67.1977 190.451 57.5698 190.451 57.5698V80.6977H177.444V31.6163C180.299 31.6163 190.662 37.1628 201.237 52.2326V31.6163H213.926V80.593L201.237 80.6977Z" fill="#0063C3"/>
<path d="M16.0736 68.3488C15.7563 69.7093 13.5356 77.2442 12.6897 80.6977H0C1.69195 74.5233 4.97012 63.9535 8.45977 56.8372C11.8437 49.8256 16.0736 42.0814 23.1586 36.8488C26.4368 34.4419 32.6759 29.7326 44.308 30.7791V80.6977H32.0414V68.3488H16.0736ZM32.0414 56.9419V45.3256C28.1287 48.0465 23.8988 53.0698 21.3609 56.9419H32.0414Z" fill="#0063C3"/>
<path d="M219.32 34.6512C219.32 31.7209 221.752 29.4186 224.713 29.4186C227.674 29.4186 230 31.8256 230 34.6512C230 37.5814 227.568 39.9884 224.713 39.9884C221.752 39.8837 219.32 37.5814 219.32 34.6512ZM229.048 34.6512C229.048 32.2442 227.145 30.3605 224.713 30.3605C222.28 30.3605 220.377 32.2442 220.377 34.6512C220.377 37.0581 222.28 38.9419 224.713 38.9419C227.145 38.9419 229.048 36.9535 229.048 34.6512ZM227.356 37.4767H226.087L224.818 35.0698H223.655V37.4767H222.492V31.8256H225.241C225.77 31.8256 226.405 31.8256 226.828 32.1395C227.356 32.4535 227.462 32.9767 227.462 33.6047C227.462 34.6512 226.933 35.0698 225.876 35.1744L227.356 37.4767ZM225.347 34.2326C225.982 34.2326 226.405 34.1279 226.405 33.3953C226.405 32.6628 225.559 32.6628 225.03 32.6628H223.655V34.2326H225.347Z" fill="#0063C3"/>
</svg>
