<svg width="300" height="112" viewBox="0 0 300 112" fill="none" xmlns="http://www.w3.org/2000/svg">
<path d="M140.681 68.0402C140.687 67.3548 140.831 66.6778 141.106 66.0508C141.38 65.4239 141.778 64.8601 142.276 64.394C142.773 63.9279 143.36 63.5693 143.999 63.3402C144.639 63.1112 145.318 63.0164 145.995 63.0618C150.075 63.0618 150.989 64.7657 151.762 66.6029L152.704 68.9636H153.421L153.807 62.0813C151.584 61.647 149.332 61.386 147.069 61.3008C139.032 61.3008 135.762 66.3459 135.762 69.9441C135.762 79.2441 150.226 77.8639 150.226 86.0597C150.226 89.8674 147.117 91.4951 143.866 91.4951C142.376 91.5474 140.913 91.0839 139.719 90.1815C139.201 89.7912 137.967 87.3258 137.448 85.0127H136.732L136.346 92.6279C138.297 92.9579 140.268 93.155 142.245 93.218C152.563 93.218 155.145 88.1063 155.145 84.175C155.145 73.7041 140.69 75.7887 140.69 67.9927" fill="#939597"/>
<path d="M176.922 87.926C175.819 89.0397 174.01 90.4771 172.125 90.4771C170.891 90.4771 168.874 89.3634 168.874 86.3554V64.2332H176.384V62.4531H168.846V54.8379H167.904C166.613 58.8359 162.25 62.2437 158.697 63.0909V64.2332H163.88V75.2276C163.88 78.8924 163.691 84.3944 163.691 87.3453C163.691 92.6474 167.065 93.4375 168.752 93.4375C171.673 93.4375 173.746 92.4856 177.836 89.1825L176.922 87.926Z" fill="#939597"/>
<path d="M194.816 62.7094C199.414 62.7094 201.412 65.8506 201.412 70.2484V71.4288C200.47 71.4954 199.527 71.4954 197.454 71.5525L187.098 71.8476C188.041 66.4123 190.868 62.7379 194.816 62.7379V62.7094ZM205.323 73.4849C206.755 73.4183 207.207 73.028 207.207 71.4573C207.207 65.7459 203.579 61.3672 195.9 61.3672C185.92 61.3672 180.992 69.7534 180.992 77.6733C180.992 86.9067 186.505 93.332 194.74 93.332C199.216 93.332 203.221 92.0184 206.218 88.5725L205.275 87.3922C204.318 88.361 203.174 89.1223 201.916 89.6297C200.657 90.1371 199.309 90.3798 197.954 90.3431C190.302 90.3431 186.797 82.9373 186.797 75.6648C186.797 74.9413 186.863 74.1607 186.929 73.4373L205.323 73.4849Z" fill="#939597"/>
<path d="M219.326 85.6978V59.768C219.326 55.3131 219.58 50.8582 219.712 46.4414C216.178 46.813 212.626 46.9878 209.073 46.965V47.9169L212.899 49.1638C213.112 49.2083 213.314 49.2951 213.494 49.4193C213.674 49.5435 213.827 49.7026 213.945 49.8873C214.301 51.7206 214.453 53.5885 214.397 55.4559V85.6978C214.397 88.9057 214.133 90.0195 212.126 90.6763L209.083 91.7234V92.6753C211.6 92.3657 214.132 92.1909 216.668 92.1517C219.326 92.1517 222.049 92.4183 224.64 92.6753V91.7234L221.465 90.6763C219.457 90.0195 219.326 88.9057 219.326 85.6978" fill="#939597"/>
<path d="M239.52 90.6763C237.512 90.0195 237.381 88.9057 237.381 85.6978V59.768C237.381 55.3131 237.635 50.8582 237.776 46.4414C234.242 46.8125 230.691 46.9873 227.138 46.965V47.9169L230.963 49.1543C231.39 49.2474 231.763 49.5075 232 49.8778C232.357 51.7109 232.509 53.5789 232.452 55.4464V85.6978C232.452 88.9057 232.188 90.0195 230.181 90.6763L227.138 91.7234V92.6753C229.64 92.3674 232.156 92.1926 234.676 92.1517C237.333 92.1517 240.057 92.4087 242.648 92.6753V91.7234L239.52 90.6763Z" fill="#939597"/>
<path d="M264.123 81.6344C264.123 86.8794 260.684 89.8874 256.538 89.8874C252.844 89.8874 251.034 87.6599 251.034 84.176C251.034 77.1033 258.874 76.18 264.133 76.18L264.123 81.6344ZM269.051 87.4695V69.2026C269.051 63.1104 264.519 61.3398 259.327 61.3398C254.135 61.3398 250.507 63.9671 247.463 68.8694L249.084 69.8213C249.997 68.327 251.263 67.0842 252.767 66.2039C254.272 65.3236 255.968 64.8331 257.706 64.7762C261.4 64.7762 264.255 66.1469 264.255 71.0016V74.4761H263.803C253.107 74.4761 245.588 77.8173 245.588 85.2802C245.588 90.9154 249.414 93.3333 254.144 93.3333C258.874 93.3333 261.683 90.4775 264.189 87.1078H264.321L264.123 92.6764C265.677 92.374 267.253 92.1989 268.835 92.1529C270.51 92.2006 272.179 92.3756 273.829 92.6764V91.7245C269.749 90.9345 269.033 90.6108 269.033 87.4695" fill="#939597"/>
<path d="M122.353 81.6344C122.353 86.8794 118.914 89.8874 114.814 89.8874C111.121 89.8874 109.302 87.6599 109.302 84.176C109.302 77.1033 117.151 76.18 122.4 76.18L122.353 81.6344ZM127.281 87.4695V69.2026C127.281 63.1104 122.739 61.3398 117.557 61.3398C112.374 61.3398 108.737 63.9671 105.693 68.8694L107.314 69.8213C108.227 68.327 109.493 67.0842 110.997 66.2039C112.501 65.3236 114.198 64.8332 115.936 64.7762C119.63 64.7762 122.532 66.1469 122.532 71.0016V74.4761H122.08C111.366 74.438 103.827 77.7792 103.827 85.2421C103.827 90.8774 107.653 93.2952 112.383 93.2952C117.114 93.2952 119.922 90.4395 122.428 87.0697H122.56L122.362 92.6384C123.916 92.336 125.492 92.1609 127.074 92.1148C128.749 92.163 130.419 92.338 132.068 92.6384V91.6865C127.979 90.8964 127.272 90.5727 127.272 87.4315" fill="#939597"/>
<path d="M282.545 68.0402C282.552 67.3548 282.696 66.6778 282.971 66.0508C283.245 65.4239 283.643 64.8601 284.141 64.394C284.638 63.9279 285.225 63.5693 285.864 63.3402C286.504 63.1112 287.183 63.0164 287.86 63.0618C291.94 63.0618 292.845 64.7657 293.627 66.6029L294.569 68.9636H295.276L295.672 62.0813C293.446 61.6471 291.19 61.3861 288.925 61.3008C280.878 61.3008 277.617 66.3459 277.617 69.9441C277.617 79.2441 292.072 77.8639 292.072 86.0597C292.072 89.8674 288.963 91.4951 285.721 91.4951C284.229 91.545 282.764 91.0819 281.565 90.1815C281.047 89.7912 279.822 87.3258 279.304 85.0127H278.588L278.192 92.6279C280.143 92.9578 282.114 93.155 284.091 93.218C294.4 93.218 296.991 88.1063 296.991 84.175C296.991 73.7041 282.536 75.7887 282.536 67.9927" fill="#939597"/>
<path d="M90.4554 45.4429C83.52 51.5636 73.6729 57.2464 63.8634 63.034C61.3946 74.9518 58.4923 86.3366 53.498 94.1707C64.4194 88.7925 75.0863 74.4568 80.6648 62.1583C85.9168 63.5042 90.7671 66.1174 94.7994 69.7735C95.6475 60.2545 93.4236 52.4679 90.4648 45.4238" fill="#A7A9AC"/>
<path d="M80.4949 12.8301C76.132 16.771 73.1544 23.4057 70.8457 31.3636C76.132 32.82 81.0886 34.0004 85.4892 34.7238C82.0686 27.5179 79.3265 20.6357 80.4949 12.8301Z" fill="#A7A9AC"/>
<path d="M3 21.0648C23.4292 23.8348 41.2765 34.8198 53.7904 50.0597C46.0352 58.5221 35.5662 72.9815 33.1538 87.0792C38.9208 78.0742 51.3215 70.4494 63.8919 63.0151C66.1346 52.1539 68.0192 40.8263 70.8462 31.3644C49.7856 25.7386 23.1277 16.8764 3 21.0648Z" fill="#D91E49"/>
<path d="M85.4893 34.7227C87.11 38.1685 88.8816 41.6811 90.4552 45.4125C94.2245 42.0713 97.155 38.5969 98.6816 34.894C95.3364 35.8459 90.8227 35.627 85.4893 34.7227" fill="#D91E49"/>
<path d="M85.4896 34.7235C81.0891 34.0001 76.1325 32.8197 70.8462 31.3633C68.0193 40.8252 66.1346 52.1528 63.9014 63.0331C73.6731 57.2455 83.5202 51.5722 90.4556 45.4419C88.8914 41.7105 87.1198 38.1979 85.4896 34.7521" fill="#A62B4E"/>
</svg>
