<svg width="112" height="112" viewBox="0 0 112 112" fill="none" xmlns="http://www.w3.org/2000/svg">
<path d="M52.0537 17.7387H58.4221C59.1457 17.7387 59.7247 17.1597 59.7247 16.4361C59.7247 15.7124 59.1457 15.1334 58.4221 15.1334H52.0537V17.7387ZM52.0537 23.8176H58.5668C59.4352 23.8176 60.0142 23.2387 60.0142 22.3703C60.0142 21.5019 59.4352 20.9229 58.5668 20.9229H52.0537V23.8176ZM62.33 19.1861C63.1984 20.0545 63.7773 21.2124 63.7773 22.515C63.7773 25.1203 61.751 27.1466 59.1457 27.1466H48.58V11.9492H59.001C61.4615 11.9492 63.4879 13.9755 63.4879 16.4361C63.3431 17.4492 62.9089 18.4624 62.33 19.1861ZM64.7905 45.2387H60.8826L59.7247 42.6335H51.1852L50.0273 45.2387H46.1194L53.6458 30.0413H57.1194L64.7905 45.2387ZM55.3826 33.9492L52.7773 39.4492H57.9879L55.3826 33.9492ZM60.5931 48.5677H64.9352L57.2642 58.4098V63.765H53.6458V58.4098L45.9747 48.5677H50.3168L55.5273 55.515L60.5931 48.5677ZM80.7115 48.5677V51.8966H70.58V54.5019H80.4221V57.8308H70.58V60.7256H80.7115V64.0545H66.9615V48.5677H80.7115ZM91.8563 57.9756H89.1063V63.765H85.4878V48.5677H94.751C97.3563 48.5677 99.3826 50.7387 99.3826 53.344C99.3826 55.515 97.9352 57.2519 96.0536 57.8308L100.54 63.765H96.1984L91.8563 57.9756ZM94.4615 51.7519H89.251V54.6466H94.4615C95.3299 54.6466 95.9089 53.9229 95.9089 53.1993C95.9089 52.4756 95.1852 51.7519 94.4615 51.7519ZM47.5668 63.765H43.6589L42.501 61.1598H33.9615L32.8037 63.765H28.8958L36.5668 48.5677H40.0405L47.5668 63.765ZM38.1589 52.4756L35.5537 57.9756H40.9089L38.1589 52.4756ZM15.1458 54.3571H21.5142C22.2379 54.3571 22.8168 53.7782 22.8168 53.0545C22.8168 52.3308 22.2379 51.7519 21.5142 51.7519H15.1458V54.3571ZM15.1458 60.4361H21.6589C22.5273 60.4361 23.1063 59.8572 23.1063 58.9887C23.1063 58.1203 22.5273 57.5414 21.6589 57.5414H15.1458V60.4361ZM25.4221 55.8045C26.2905 56.6729 26.8694 57.8308 26.8694 59.1335C26.8694 61.7387 24.8431 63.765 22.2379 63.765H11.5273V48.5677H21.9484C24.4089 48.5677 26.4352 50.594 26.4352 53.0545C26.4352 54.0677 26.001 55.0808 25.4221 55.8045ZM62.33 66.9493V70.2782H52.1984V72.8835H62.0405V76.2124H52.1984V79.1072H62.33V82.4361H48.58V66.9493H62.33ZM59.7247 90.5414C59.7247 89.673 59.1458 89.094 58.2773 89.094H52.0537V91.9888H58.2773C59.1458 91.9888 59.7247 91.4098 59.7247 90.5414ZM48.4352 101.107V85.9098H58.5668C61.1721 85.9098 63.1984 88.0809 63.1984 90.6861C63.1984 92.7124 62.0405 94.3045 60.3036 95.0282L64.9352 101.107H60.5931L56.251 95.3177H52.0537V101.107H48.4352V101.107Z" fill="#10384F"/>
<path d="M110.238 52.9092C108.501 24.2512 84.6194 1.38281 55.3826 1.38281C26.1458 1.38281 2.26419 24.2512 0.527344 52.9092C0.527344 54.0671 0.672081 55.225 0.816817 56.3829C1.97471 65.9355 5.59313 74.7644 11.0931 82.146C21.08 95.7513 37.1458 104.58 55.3826 104.58C29.9089 104.58 9.06681 84.7513 7.32997 59.8565C7.18524 58.6986 7.18524 57.5407 7.18524 56.3829C7.18524 55.225 7.18524 54.0671 7.32997 52.9092C9.06681 28.0144 29.9089 8.18545 55.3826 8.18545C73.6194 8.18545 89.6852 17.0144 99.672 30.6197C105.172 38.0013 108.79 46.8302 109.948 56.3829C110.093 57.5407 110.238 58.6986 110.238 59.7118C110.238 58.5539 110.383 57.396 110.383 56.2381C110.383 55.225 110.383 54.0671 110.238 52.9092Z" fill="#89D329"/>
<path d="M0.527549 59.8566C2.26439 88.5146 26.146 111.383 55.3828 111.383C84.6196 111.383 108.501 88.5146 110.238 59.8566C110.238 58.6987 110.093 57.5408 109.949 56.3829C108.791 46.8303 105.172 38.0014 99.6723 30.6198C89.6854 17.0145 73.6196 8.18555 55.3828 8.18555C80.8565 8.18555 101.699 28.0145 103.435 52.9093C103.58 54.0672 103.58 55.2251 103.58 56.3829C103.58 57.5408 103.58 58.6987 103.435 59.8566C101.699 84.8961 80.8565 104.58 55.3828 104.58C37.146 104.58 21.0802 95.7514 11.0933 82.1461C5.59334 74.7645 1.97492 65.9356 0.817023 56.3829C0.672286 55.2251 0.527549 54.0672 0.527549 53.054C0.527549 54.2119 0.382812 55.3698 0.382812 56.5277C0.382813 57.5408 0.382813 58.6987 0.527549 59.8566Z" fill="#00BCFF"/>
</svg>
