<svg width="300" height="112" viewBox="0 0 300 112" fill="none" xmlns="http://www.w3.org/2000/svg">
<path fill-rule="evenodd" clip-rule="evenodd" d="M282.969 32.6813L280.849 31.5283C279.464 32.2703 278.321 33.8313 278.321 34.9843V45.7583L281.176 46.1703V47.8973H272.127V46.2523L274.49 45.7583V30.6253L272.127 30.2133V28.8973L277.018 27.5823H278.241V31.3653C279.871 28.5683 280.685 27.8283 282.154 27.8283C283.62 27.8283 284.518 28.7333 284.518 30.2133C284.518 31.1183 284.028 31.8583 282.969 32.6813ZM263.161 45.4293C264.627 45.4293 265.686 44.6893 266.911 42.7973L268.704 43.5383C266.665 47.2393 265.197 48.3073 262.018 48.3073C257.128 48.3073 254.356 44.7723 254.356 38.3563C254.356 31.5283 257.208 27.4173 261.937 27.4173C266.502 27.4173 268.704 30.7073 268.784 37.5333H258.431C258.839 43.1263 260.225 45.4293 263.161 45.4293ZM264.627 35.5603C264.464 31.1183 263.648 29.3913 261.774 29.3913C259.899 29.3913 258.921 31.2833 258.431 35.5603H264.627ZM250.197 34.3253C250.197 38.1093 247.263 40.9063 243.35 40.9063C242.536 40.9063 241.882 40.8233 241.15 40.5773C240.172 41.2343 239.601 41.8933 239.601 42.3043C239.601 42.8813 240.09 43.1263 241.312 43.2093L246.204 43.4553C250.035 43.6213 251.829 45.1013 251.829 48.1443C251.829 52.5033 247.997 55.2993 242.128 55.2993C237.725 55.2993 234.872 53.6553 234.872 51.1053C234.872 49.4603 235.769 48.3073 238.051 46.8273C236.422 46.1703 235.769 45.3473 235.769 44.1973C235.769 42.7973 236.83 41.4823 239.438 39.8363C236.993 38.2743 236.096 36.7113 236.096 34.1613C236.096 30.2963 239.03 27.3343 242.861 27.3343C243.676 27.3343 244.003 27.4173 245.47 27.7453C246.285 27.9923 246.855 28.0753 247.263 28.0753C247.344 28.0753 247.672 28.0753 247.997 27.9923H248.73L252.073 27.9103V30.2963H248.73C249.872 31.7763 250.197 32.7633 250.197 34.3253ZM238.786 50.2003C238.786 52.0103 240.415 53.0803 243.106 53.0803C246.449 53.0803 248.976 51.5993 248.976 49.7063C248.976 47.8153 248.322 47.6503 240.253 47.1573C239.193 48.1443 238.786 48.9673 238.786 50.2003ZM243.025 29.0623C241.232 29.0623 240.415 30.6253 240.415 33.9973C240.415 37.4513 241.232 39.0143 243.187 39.0143C245.062 39.0143 245.958 37.4513 245.958 34.4083C245.958 30.7903 244.981 29.0623 243.025 29.0623ZM231.204 65.0053C229.737 65.0053 228.596 63.8543 228.596 62.3743C228.596 60.8923 229.818 59.6603 231.367 59.6603C232.753 59.6603 233.894 60.8923 233.894 62.2913C233.894 63.7723 232.672 65.0053 231.204 65.0053ZM224.847 46.2523L226.965 45.8413V33.8313C226.965 31.5283 226.231 30.4603 224.683 30.4603C223.46 30.4603 222.401 30.9533 220.852 32.2703V45.6773L222.97 46.1703V47.8973H214.574V46.2523L216.938 45.7583V30.7903L214.574 30.4603V28.8153L219.629 27.4993H220.77V29.9673C223.216 28.0753 224.357 27.5823 226.15 27.5823C229.248 27.5823 230.961 29.5553 230.961 32.9283V45.6773L233.079 46.1703V47.8973H224.847V46.2523ZM203.324 46.2523L205.525 45.7583V30.9533L203.324 30.4603V29.0623L208.46 27.7453H209.438V45.7583L211.721 46.1703V47.8973H203.324V46.2523ZM207.157 22.9753C205.687 22.9753 204.547 21.8243 204.547 20.3423C204.547 18.8623 205.687 17.7123 207.157 17.7123C208.624 17.7123 209.764 18.8623 209.764 20.3423C209.764 21.8243 208.624 22.9753 207.157 22.9753ZM204.874 87.7063L207.075 88.1993V89.9273H198.923V88.2823L200.879 87.8713V76.6843C200.879 73.7243 200.226 72.6553 198.515 72.6553C197.372 72.6553 196.394 73.1483 194.766 74.5473V87.7063L196.722 88.1993V89.9273H188.488V88.2823L190.851 87.7893V62.6193L188.569 62.2083V60.8093L193.705 59.6603H194.766V72.1613C196.966 70.3513 198.269 69.7763 200.145 69.7763C203.162 69.7763 204.874 71.6683 204.874 75.0393V87.7063ZM197.619 31.5283C196.232 32.2703 195.091 33.8313 195.091 34.9843V45.7583L197.943 46.1703V47.8973H188.895V46.2523L191.259 45.7583V30.6253L188.895 30.2133V28.8973L193.787 27.5823H195.009V31.3653C196.64 28.5683 197.456 27.8283 198.923 27.8283C200.39 27.8283 201.286 28.7333 201.286 30.2133C201.286 31.1183 200.798 31.8583 199.737 32.6813L197.619 31.5283ZM178.054 46.2523L180.011 45.8413V34.7363C180.011 31.7763 179.357 30.7073 177.647 30.7073C176.424 30.7073 175.527 31.1183 173.897 32.5153V45.7583L175.854 46.1703V47.8973H167.538V46.2523L169.984 45.7583V20.6723L167.701 20.1793V18.7803L172.755 17.7123H173.897V30.1303C176.178 28.3203 177.483 27.7453 179.195 27.7453C182.374 27.7453 184.005 29.6373 184.005 33.3383V45.7583L186.124 46.1703V47.8973H178.054V46.2523ZM174.385 74.3813C174.711 75.4513 174.793 76.7663 174.957 79.4813H164.521C164.929 85.1563 166.315 87.4603 169.25 87.4603C170.797 87.4603 171.858 86.7193 173.082 84.8273L174.874 85.5693C172.999 89.1043 171.288 90.3383 168.109 90.3383C163.216 90.3383 160.445 86.6383 160.445 80.3033C160.445 73.4763 163.299 69.4473 168.028 69.4473C171.288 69.4473 173.407 71.1743 174.385 74.3813ZM164.521 77.5903H170.717C170.636 73.3123 169.82 71.4203 167.945 71.4203C166.071 71.4203 165.01 73.2303 164.521 77.5903ZM159.791 45.4293C161.26 45.4293 162.32 44.6893 163.542 42.7973L165.336 43.5383C163.298 47.2393 161.831 48.3073 158.652 48.3073C153.76 48.3073 150.988 44.7723 150.988 38.3563C150.988 31.5283 153.842 27.4173 158.569 27.4173C163.134 27.4173 165.336 30.7073 165.417 37.5333H155.064C155.472 43.1263 156.858 45.4293 159.791 45.4293ZM161.26 35.5603C161.096 31.1183 160.282 29.3913 158.406 29.3913C156.531 29.3913 155.553 31.2833 155.064 35.5603H161.26ZM153.434 70.1043C153.517 70.1043 153.842 70.1043 154.167 70.0223H154.902L158.244 69.9403V72.3253H154.902C156.042 73.8053 156.369 74.7913 156.369 76.3573C156.369 80.1393 153.434 82.9363 149.521 82.9363C148.705 82.9363 148.054 82.8543 147.32 82.6063C146.341 83.2653 145.772 83.9223 145.772 84.4163C145.772 84.9103 146.26 85.1563 147.482 85.2393L152.374 85.4853C156.206 85.6503 157.999 87.1303 157.999 90.1743C157.999 94.5333 154.167 97.3303 148.297 97.3303C143.897 97.3303 141.044 95.6833 141.044 93.1363C141.044 91.4893 141.857 90.4203 144.223 88.8583C142.592 88.1993 141.939 87.4603 141.939 86.3083C141.939 84.8273 143 83.5113 145.608 81.8663C143.162 80.3033 142.265 78.7413 142.265 76.1923C142.265 72.3253 145.201 69.3653 149.032 69.3653C149.848 69.3653 150.172 69.4473 151.641 69.7763C152.455 70.0223 153.026 70.1043 153.434 70.1043ZM144.956 92.2303C144.956 94.0413 146.586 95.1083 149.275 95.1083C152.619 95.1083 155.145 93.7103 155.145 91.7373C155.145 90.0093 154.248 89.6803 147.972 89.2693L146.423 89.1873C145.364 90.1743 144.956 90.9953 144.956 92.2303ZM149.194 71.0923C147.402 71.0923 146.586 72.6553 146.586 76.0273C146.586 79.4813 147.402 81.0453 149.359 81.0453C151.234 81.0453 152.129 79.4813 152.129 76.4383C152.129 72.8193 151.151 71.0923 149.194 71.0923ZM139.739 48.3073C135.093 48.3073 131.914 44.1973 131.914 38.1923C131.914 31.7763 135.255 27.3343 140.147 27.3343C144.792 27.3343 147.972 31.3653 147.972 37.4513C147.972 43.9493 144.63 48.3073 139.739 48.3073ZM139.983 29.3083C137.619 29.3083 136.233 32.5153 136.233 38.0263C136.233 43.2923 137.538 46.2523 139.821 46.2523C142.265 46.2523 143.569 43.1263 143.569 36.9583C143.569 32.0233 142.265 29.3083 139.983 29.3083ZM137.049 74.9583V87.7063L139.168 88.1993V89.9273H130.935V88.2823L133.053 87.8713V75.8633C133.053 73.5593 132.32 72.4903 130.773 72.4903C129.55 72.4903 128.488 72.9833 126.94 74.3003V87.7063L129.059 88.1993V89.9273H120.663V88.2823L123.026 87.7893V72.8193L120.663 72.4903V70.8453L125.717 69.5293H126.859V71.9973C129.304 70.1043 130.447 69.6113 132.239 69.6113C135.336 69.6113 137.049 71.5853 137.049 74.9583ZM128.816 40.4943C128.816 43.6213 127.102 46.2523 124.413 47.3213C123.191 47.8153 121.723 47.9803 119.033 47.9803H116.506C115.121 47.8973 114.061 47.8973 113.245 47.8973H108.517V46.2523L111.289 45.7583V21.8243L108.517 21.3303V19.6023H113.49L116.914 19.5203C118.137 19.4373 119.115 19.3563 119.442 19.3563C124.088 19.3563 127.185 22.0703 127.185 26.2653C127.185 29.1433 125.636 31.1993 122.294 32.8453C126.533 33.7503 128.816 36.4643 128.816 40.4943ZM122.539 26.4303C122.539 23.1393 120.827 21.1663 117.891 21.1663C117.077 21.1663 116.506 21.2473 115.365 21.6593V32.1053H117.402C120.909 32.1053 122.539 30.2963 122.539 26.4303ZM117.159 34.0793H115.365V45.5933C116.18 46.0873 116.751 46.2523 117.891 46.2523C121.723 46.2523 124.088 43.8673 124.088 40.0023C124.088 35.9713 121.886 34.0793 117.159 34.0793ZM76.4804 87.3783V64.5113H80.3104V80.1393C83.1644 76.7663 84.5494 74.7103 85.9364 72.2433C88.7894 67.1443 90.3384 60.8093 90.3384 54.7233C90.3384 34.9843 74.6054 18.9443 55.2044 18.9443C35.7214 18.9443 20.0694 34.9843 20.0694 54.9713C20.0694 64.0993 23.2494 72.1613 30.0144 80.1393V64.5113H33.9274V87.3783C28.3844 83.3473 25.4494 80.3863 22.6774 76.1093C18.6834 69.8593 16.4834 62.2913 16.4834 54.8053C16.4834 33.1753 33.7644 15.6543 55.2044 15.6543C76.5614 15.6543 93.9254 33.1753 93.9254 54.7233C93.9254 63.6073 90.9084 72.4903 85.6104 79.0713C83.4084 81.8663 81.5344 83.5113 76.4804 87.3783ZM41.5894 91.3263C40.8564 91.1603 39.1454 90.3383 37.7594 89.5983V64.5113H41.5894V91.3263ZM67.0244 33.4203L64.9054 36.2183L55.2044 28.6503L45.5024 36.2183L43.3834 33.4203L55.2044 24.1263L67.0244 33.4203ZM49.3344 93.3823C47.9484 93.1363 47.8674 93.1363 47.3784 92.9703C46.9704 92.8883 46.8074 92.8883 45.5024 92.5593V39.0973H49.3344V93.3823ZM57.0784 93.7103C56.5084 93.7923 56.3444 93.7923 55.5304 93.7923C54.3074 93.7923 53.8994 93.7923 53.2474 93.7103V39.0973H57.0784V93.7103ZM64.8234 92.4773C63.6004 92.8883 62.5414 93.1363 60.9914 93.4643V39.0973H64.8234V92.4773ZM72.6484 89.5983C71.4264 90.1743 70.6914 90.5023 68.7354 91.4083V64.5113H72.6484V89.5983ZM118.056 63.2793L115.609 63.7723V87.7063L117.973 88.1993V89.9273H108.681V88.2823L111.289 87.7893V63.7723L108.681 63.3613V61.5513H118.056V63.2793ZM179.684 62.4563L177.401 62.2083V60.8093L182.537 59.6603H183.597V87.7063L185.797 88.1993V89.9273H177.321V88.2823L179.684 87.7893V62.4563ZM217.265 69.4473C220.526 69.4473 222.643 71.1743 223.622 74.3813C223.948 75.4513 224.029 76.7663 224.193 79.4813H213.759C214.167 85.1563 215.553 87.4603 218.486 87.4603C220.035 87.4603 221.096 86.7193 222.318 84.8273L224.111 85.5693C222.236 89.1043 220.526 90.3383 217.346 90.3383C212.454 90.3383 209.682 86.6383 209.682 80.3033C209.682 73.4763 212.535 69.4473 217.265 69.4473ZM219.954 77.5903C219.872 73.3123 219.057 71.4203 217.182 71.4203C215.307 71.4203 214.248 73.2303 213.759 77.5903H219.954ZM233.487 69.7763V87.7063L235.769 88.1993V89.9273H227.373V88.2823L229.575 87.7893V72.9003L227.373 72.4063V71.0923L232.508 69.7763H233.487ZM240.905 87.7893V72.6553L238.541 72.2433V70.8453L243.676 69.5293H244.737V72.2433C246.775 70.5163 248.322 69.8593 250.28 69.8593C252.318 69.8593 253.703 70.6823 254.845 72.4903C256.964 70.5163 258.349 69.7763 260.47 69.7763C263.974 69.7763 265.442 71.5023 265.442 75.6153V87.7063L267.725 88.1993V89.9273H259.246V88.2823L261.448 87.7893V76.3573C261.448 73.6413 260.713 72.5723 259.002 72.5723C257.699 72.5723 256.802 73.0673 255.17 74.5473V87.7063L257.208 88.1993V89.9273H248.976V88.2823L251.259 87.7893V76.2733C251.259 73.7243 250.443 72.5723 248.649 72.5723C247.344 72.5723 246.366 73.0673 244.981 74.4643V87.7063L246.855 88.1993V89.9273H238.541V88.2823L240.905 87.7893Z" fill="#1C3260"/>
</svg>
