<svg width="300" height="112" viewBox="0 0 300 112" fill="none" xmlns="http://www.w3.org/2000/svg">
<g clip-path="url(#clip0)">
<path fill-rule="evenodd" clip-rule="evenodd" d="M297.914 51.6948V47.0756H296.93L295.781 50.6524H295.747L294.611 47.0756H293.581V51.6948H294.166V47.7154H294.199L295.461 51.6948H296.019L297.289 47.7154H297.322V51.6948H297.914ZM291.768 51.6948V47.6034H293.017V47.0756H289.927V47.6034H291.163V51.6948H291.768ZM46.3325 57.7178L46.3358 57.6042C48.7294 56.7874 50.2126 55.358 50.2126 52.8063V52.4144C50.2126 49.4849 47.8141 47.0748 42.9224 47.0748H36.1562V69.94H43.4141C48.1681 69.94 51.4314 67.567 51.4314 63.7671V63.5382C51.4314 60.574 49.6737 58.4028 46.3325 57.7178ZM39.1169 49.6553H42.5004C45.7248 49.6553 47.3697 50.8681 47.3697 53.0402V53.2699C47.3697 55.8915 45.0872 56.7322 42.0884 56.7322H39.1169V49.6553ZM48.3986 63.5045C48.3986 66.3336 46.1542 67.3916 42.8801 67.3916H39.1169V59.1488H42.9332C46.1567 59.1488 48.3986 60.2126 48.3986 63.1446V63.5045ZM61.1069 52.6277H61.9616V55.3061H61.271C58.5077 55.3061 56.6986 56.6778 56.6986 60.3048V69.94H53.9369V52.6277H56.6986V55.731H56.8304C57.3237 54.1641 58.6072 52.6277 61.1069 52.6277ZM64.4199 52.6277H67.1833V69.94H64.4199V52.6277ZM67.4867 48.7438C67.4867 50.081 66.874 50.7075 65.8012 50.7075C64.7283 50.7075 64.1148 50.081 64.1148 48.7438C64.1148 47.4067 64.7283 46.7422 65.8012 46.7422C66.874 46.7422 67.4867 47.4067 67.4867 48.7438ZM82.509 65.1709C82.509 68.5032 80.0085 70.266 76.358 70.266C72.6743 70.266 70.2401 68.6983 70.0428 65.1709H72.8061C72.904 67.2945 74.4826 67.9803 76.358 67.9803C78.2325 67.9803 79.7456 67.1635 79.7456 65.3661C79.7456 61.1529 70.2401 64.061 70.2401 57.2345C70.2401 54.3913 72.3452 52.3008 76.193 52.3008C79.7133 52.3008 82.048 54.0323 82.3116 57.3967H79.5483C79.3841 55.3711 77.9697 54.5873 76.193 54.5873C74.1865 54.5873 72.9371 55.5021 72.9371 57.2345C72.9371 61.3167 82.509 58.8013 82.509 65.1709ZM88.883 52.6277H92.633V55.0451H88.883V64.6152C88.883 67.1306 89.5413 67.6526 91.2186 67.6526C91.6787 67.6526 92.2052 67.5876 92.633 67.5546V69.9078C92.1065 70.005 91.4159 70.07 90.9226 70.07C87.5018 70.07 86.1205 68.7312 86.1205 65.0392V55.0451H83.193V52.6277H86.1205V47.0748H88.883V52.6277ZM100.795 52.3008C96.4849 52.3008 94.1834 55.241 94.1834 60.01V62.5576C94.1834 67.3266 96.4849 70.266 100.795 70.266C105.102 70.266 107.405 67.3266 107.405 62.5576V60.01C107.405 55.241 105.102 52.3008 100.795 52.3008ZM104.61 62.3946C104.61 66.5098 103.162 67.8494 100.795 67.8494C98.4258 67.8494 96.9799 66.5098 96.9799 62.3946V60.1731C96.9799 56.057 98.4258 54.7182 100.795 54.7182C103.162 54.7182 104.61 56.057 104.61 60.1731V62.3946ZM110.325 47.0748H113.088V69.9391H110.325V47.0748ZM139.738 47.0748H144.427V69.94H141.499V50.244H141.335L135.447 66.1549H131.861L126.041 50.244H125.877V69.94H122.983V47.0748H127.901L133.704 62.9569H133.869L139.738 47.0748ZM157.862 52.6277H160.658L152.929 75.4928H150.068L152.009 70.07L146.35 52.6277H149.279L153.456 66.1187H153.588L157.862 52.6277ZM168.081 52.3008C163.773 52.3008 161.471 55.3711 161.471 60.01V62.5576C161.471 67.3266 163.773 70.266 168.081 70.266C171.535 70.266 173.574 68.3715 174.264 65.138H171.436C170.943 67.1306 169.825 67.8494 168.081 67.8494C165.714 67.8494 164.266 66.5098 164.266 62.3946V62.1657H174.363V60.01C174.363 55.3711 172.391 52.3008 168.081 52.3008ZM168.081 54.7182C170.319 54.7182 171.532 56.0266 171.565 60.01H164.27C164.309 56.0266 165.746 54.7182 168.081 54.7182ZM184.607 52.6277H185.461V55.3061H184.771C182.009 55.3061 180.2 56.6778 180.2 60.3048V69.94H177.437V52.6277H180.2V55.731H180.332C180.824 54.1641 182.107 52.6277 184.607 52.6277ZM199.407 65.1709C199.407 68.5032 196.908 70.266 193.256 70.266C189.573 70.266 187.14 68.6983 186.941 65.1709H189.704C189.804 67.2945 191.383 67.9803 193.256 67.9803C195.131 67.9803 196.644 67.1635 196.644 65.3661C196.644 61.1529 187.14 64.061 187.14 57.2345C187.14 54.3913 189.245 52.3008 193.092 52.3008C196.611 52.3008 198.948 54.0323 199.21 57.3967H196.447C196.283 55.3711 194.869 54.5873 193.092 54.5873C191.086 54.5873 189.836 55.5021 189.836 57.2345C189.836 61.3167 199.407 58.8013 199.407 65.1709ZM221.366 63.8964C221.366 67.9803 218.538 70.266 214.195 70.266C210.117 70.266 206.762 68.3064 206.335 63.9293H209.393C209.755 66.5098 211.597 67.7185 214.162 67.7185C217.09 67.7185 218.406 65.9869 218.406 64.061C218.406 57.5597 206.697 61.3167 206.697 52.7915C206.697 49.1333 209.624 46.7488 213.702 46.7488C217.648 46.7488 220.938 48.6755 221.136 53.1834H218.076C217.814 50.407 216.038 49.2963 213.67 49.2963C210.874 49.2963 209.656 50.9299 209.656 52.6598C209.656 58.4094 221.366 55.0121 221.366 63.8964ZM233.849 54.7182H233.714C232.968 53.19 231.549 52.3008 229.738 52.3008C225.428 52.3008 223.455 55.241 223.455 60.01V62.5576C223.455 67.3266 225.428 70.266 229.738 70.266C231.549 70.266 232.969 69.3768 233.714 67.8494H233.849V69.94V75.4928H236.613V52.6277H233.849V54.7182ZM230.066 67.8494C227.699 67.8494 226.251 66.5098 226.251 62.3946V60.1731C226.251 56.057 227.699 54.7182 230.066 54.7182C232.434 54.7182 233.882 56.057 233.882 60.1731V62.3946C233.882 66.5098 232.434 67.8494 230.066 67.8494ZM249.301 52.6277H252.064V69.94H249.301V67.7185H249.17C248.512 69.1224 247.097 70.266 244.894 70.266C241.639 70.266 239.631 68.4365 239.631 64.3534V52.6277H242.428V63.9622C242.428 66.7387 243.579 67.9474 245.651 67.9474C247.657 67.9474 249.301 66.6078 249.301 63.2434V52.6277ZM255.613 52.6277H258.375V69.94H255.613V52.6277ZM268.954 52.3008C267.116 52.3008 265.715 53.19 264.975 54.7182H264.843V52.6277V47.0748H262.081V69.94H264.843V67.8494H264.975C265.715 69.3768 267.116 70.266 268.954 70.266C273.263 70.266 275.236 67.3266 275.236 62.5576V60.01C275.236 55.241 273.263 52.3008 268.954 52.3008ZM272.441 62.3946C272.441 66.5098 270.993 67.8494 268.626 67.8494C266.257 67.8494 264.811 66.5098 264.811 62.3946V60.1731C264.811 56.057 266.257 54.7182 268.626 54.7182C270.993 54.7182 272.441 56.057 272.441 60.1731V62.3946ZM284.822 52.3008C282.982 52.3008 281.581 53.19 280.841 54.7182H280.709V52.6277V47.0748H277.948V69.94H280.709V67.8494H280.841C281.581 69.3768 282.982 70.266 284.822 70.266C289.13 70.266 291.103 67.3266 291.103 62.5576V60.01C291.103 55.241 289.13 52.3008 284.822 52.3008ZM288.308 62.3946C288.308 66.5098 286.861 67.8494 284.492 67.8494C282.125 67.8494 280.677 66.5098 280.677 62.3946V60.1731C280.677 56.057 282.125 54.7182 284.492 54.7182C286.861 54.7182 288.308 56.057 288.308 60.1731V62.3946ZM258.679 48.7438C258.679 50.081 258.065 50.7075 256.993 50.7075C255.921 50.7075 255.308 50.081 255.308 48.7438C255.308 47.4067 255.921 46.7422 256.993 46.7422C258.065 46.7422 258.679 47.4067 258.679 48.7438Z" fill="#595454"/>
<path fill-rule="evenodd" clip-rule="evenodd" d="M10.7857 74.9296C10.4781 75.5611 9.8231 75.9679 9.11755 75.9679C8.83566 75.9679 8.56454 75.9061 8.31001 75.7826C2.4956 72.9832 -0.576172 68.0511 -0.576172 61.5168V54.1369C-0.576172 53.1217 0.255409 52.2967 1.27685 52.2967C2.29828 52.2967 3.12986 53.1217 3.12986 54.1369V61.5168C3.12986 66.6135 5.41649 70.299 9.92757 72.4719C10.8462 72.9148 11.2317 74.0173 10.7857 74.9296ZM5.3029 57.8256C5.3029 58.8688 6.15438 59.7136 7.204 59.7136C8.25446 59.7136 9.10594 58.8688 9.10594 57.8256V42.7652C9.10594 41.7212 8.25446 40.8765 7.204 40.8765C6.15438 40.8765 5.3029 41.7212 5.3029 42.7652V57.8256ZM11.1861 57.3876C11.1861 58.43 12.0376 59.2756 13.0872 59.2756C14.1377 59.2756 14.9892 58.43 14.9892 57.3876V37.1392C14.9892 36.0959 14.1377 35.252 13.0872 35.252C12.0376 35.252 11.1861 36.0959 11.1861 37.1392V57.3876ZM17.0693 58.7807C17.0693 59.8239 17.9208 60.6687 18.9704 60.6687C20.0209 60.6687 20.8724 59.8239 20.8724 58.7807V40.6039C20.8724 39.5607 20.0209 38.7151 18.9704 38.7151C17.9208 38.7151 17.0693 39.5607 17.0693 40.6039V58.7807ZM22.9526 61.1867C22.9526 62.1986 23.7783 63.0179 24.7965 63.0179C25.8154 63.0179 26.6412 62.1986 26.6412 61.1867V48.9019C26.6412 47.89 25.8154 47.0698 24.7965 47.0698C23.7783 47.0698 22.9526 47.89 22.9526 48.9019V61.1867Z" fill="#BE2BBB"/>
</g>
<defs>
<clipPath id="clip0">
<rect width="300" height="112" fill="white"/>
</clipPath>
</defs>
</svg>
