<svg width="300" height="112" viewBox="0 0 300 112" fill="none" xmlns="http://www.w3.org/2000/svg">
<path fill-rule="evenodd" clip-rule="evenodd" d="M274.706 67.7133C272.687 65.4371 251.537 41.155 251.537 41.155H251.331V72.3913H244.224V33.7993C244.224 33.7993 256.238 33.7993 258.428 33.7993C260.624 33.7993 263.295 34.1743 265.457 36.6952C267.374 38.9295 289.522 64.4328 289.522 64.4328H289.737V33.7993H296.91V72.3913C296.91 72.3913 286.222 72.3913 283.897 72.3913C280.209 72.3913 277.488 70.8511 274.706 67.7133ZM245.737 93.1019C245.737 93.6584 245.374 94.004 244.797 94.004C244.224 94.004 243.862 93.6584 243.862 93.1019V87.5357C243.862 85.7492 242.476 85.0221 241.243 85.0221C240.005 85.0221 238.623 85.7492 238.623 87.5357V93.1019C238.623 93.6584 238.261 94.004 237.684 94.004C237.111 94.004 236.749 93.6584 236.749 93.1019V84.4655C236.749 83.909 237.111 83.5634 237.684 83.5634C238.261 83.5634 238.623 83.909 238.623 84.4655V84.8677L238.665 84.9074C239.497 83.9487 240.667 83.5634 241.795 83.5634C243.54 83.5634 245.737 84.5618 245.737 87.4394V93.1019ZM197.078 33.7383H239.24V38.7465C239.24 38.7465 218.491 38.7465 216.605 38.7465C214.019 38.7465 212.569 39.686 212.569 42.793C212.569 44.1869 212.569 50.3788 212.569 50.3788H234.7C234.7 50.3788 234.315 55.3281 228.193 55.3281C226.424 55.3281 212.569 55.3281 212.569 55.3281C212.569 55.3281 212.569 60.9318 212.569 63.2866C212.569 66.3539 214.086 67.3442 216.44 67.3442C218.803 67.3442 239.24 67.3442 239.24 67.3442V72.3311H197.078V33.7383ZM201.433 88.7855C201.433 91.4903 199.666 94.004 196.599 94.004C195.109 94.004 194.063 93.2533 193.576 92.6247H193.532V97.1322C193.532 97.6881 193.171 98.0343 192.596 98.0343C192.019 98.0343 191.657 97.6881 191.657 97.1322V84.4655C191.657 83.909 192.019 83.5634 192.596 83.5634C193.171 83.5634 193.532 83.909 193.532 84.4655V84.964H193.576C194.107 84.0428 195.109 83.5634 196.599 83.5634C199.666 83.5634 201.433 86.0763 201.433 88.7855ZM196.449 85.0221C194.151 85.0221 193.34 87.0563 193.34 88.7855C193.34 90.5133 194.151 92.5453 196.449 92.5453C198.751 92.5453 199.559 90.5133 199.559 88.7855C199.559 87.0563 198.751 85.0221 196.449 85.0221ZM182.235 72.3913H146.996V67.4126H173.189C175.43 67.4126 176.882 66.0664 176.882 63.8785V59.4526C176.882 56.5552 175.635 55.3237 172.982 55.3237H152.484C145.586 55.3237 143.529 51.9374 143.529 47.8284L143.521 40.7969C143.544 36.56 146.807 33.7993 152.491 33.7993H186.583C186.583 33.7993 186.206 38.742 180.085 38.742C177.116 38.742 162.95 38.742 162.95 38.742C159.704 38.742 158.954 40.6094 158.954 42.7349V46.3815C158.954 48.6952 159.879 50.3744 162.758 50.3744L182.648 50.3619C190.342 50.3619 192.324 53.3446 192.324 58.86V64.3497C192.324 68.6609 191.082 72.3913 182.235 72.3913ZM138.073 94.0018C134.879 94.0018 133.086 91.4903 133.086 88.7819C133.086 86.0763 134.879 83.5634 138.073 83.5634C141.266 83.5634 143.059 86.0763 143.059 88.7819C143.059 91.4903 141.266 94.0018 138.073 94.0018ZM138.073 85.0221C135.774 85.0221 134.964 87.0563 134.964 88.7819C134.964 90.511 135.774 92.5453 138.073 92.5453C140.373 92.5453 141.183 90.511 141.183 88.7819C141.183 87.0563 140.373 85.0221 138.073 85.0221ZM128.407 58.76H101.9V72.3913H86.4491V33.7993H128.407C134.868 33.7993 138.727 35.191 138.727 41.6093V50.95C138.727 57.3139 134.868 58.76 128.407 58.76ZM123.286 43.1929C123.319 40.0882 122.369 38.7465 119.173 38.7465C119.173 38.7465 110.397 38.7465 107.161 38.7465C103.304 38.7465 101.919 40.2882 101.9 43.2245C101.892 43.2223 101.9 53.7989 101.9 53.7989H119.173C122.411 53.7989 123.286 52.4417 123.286 49.2517V43.1929ZM88.2114 93.1019C88.2114 93.6584 87.8511 94.004 87.2718 94.004C86.6991 94.004 86.3388 93.6584 86.3388 93.1019V87.5357C86.3388 85.7492 84.953 85.0221 83.7156 85.0221C82.4798 85.0221 81.0983 85.7492 81.0983 87.5357V93.1019C81.0983 93.6584 80.7359 94.004 80.1588 94.004C79.586 94.004 79.2236 93.6584 79.2236 93.1019V84.4655C79.2236 83.909 79.586 83.5634 80.1588 83.5634C80.7359 83.5634 81.0983 83.909 81.0983 84.4655V84.8677L81.1402 84.9074C81.9695 83.9487 83.1422 83.5634 84.27 83.5634C86.0176 83.5634 88.2114 84.5618 88.2114 87.4394V93.1019ZM63.3653 33.7993H78.8192V72.3913H63.3653V33.7993ZM64.1425 80.108C64.7181 80.108 65.0806 80.4543 65.0806 81.013V93.1019C65.0806 93.6584 64.7181 94.004 64.1425 94.004C63.5653 94.004 63.2051 93.6584 63.2051 93.1019V81.013C63.2051 80.4543 63.5653 80.108 64.1425 80.108ZM68.5955 83.5634C69.1683 83.5634 69.5329 83.909 69.5329 84.4655V84.8677L69.5748 84.9074C70.4041 83.9487 71.5768 83.5634 72.706 83.5634C74.4521 83.5634 76.646 84.5618 76.646 87.4394V93.1019C76.646 93.6584 76.2813 94.004 75.7064 94.004C75.1329 94.004 74.7683 93.6584 74.7683 93.1019V87.5357C74.7683 85.7492 73.3854 85.0221 72.1517 85.0221C70.9166 85.0221 69.5329 85.7492 69.5329 87.5357V93.1019C69.5329 93.6584 69.1683 94.004 68.5955 94.004C68.0206 94.004 67.656 93.6584 67.656 93.1019V84.4655C67.656 83.909 68.0206 83.5634 68.5955 83.5634ZM95.2833 83.5634C98.477 83.5634 100.267 86.0763 100.267 88.7819C100.267 91.4903 98.477 94.0018 95.2833 94.0018C92.0866 94.0018 90.2994 91.4903 90.2994 88.7819C90.2994 86.0763 92.0866 83.5634 95.2833 83.5634ZM95.2833 92.5453C97.5837 92.5453 98.3917 90.511 98.3917 88.7819C98.3917 87.0563 97.5837 85.0221 95.2833 85.0221C92.9806 85.0221 92.1726 87.0563 92.1726 88.7819C92.1726 90.511 92.9806 92.5453 95.2833 92.5453ZM102.078 83.5634C102.696 83.5634 102.909 83.8303 103.057 84.2155L105.634 91.2779H105.676L108.255 84.2155C108.403 83.8303 108.615 83.5634 109.234 83.5634C109.68 83.5634 110.086 83.8531 110.086 84.3508C110.086 84.5427 110.022 84.7346 109.895 85.0412L106.636 93.2769C106.444 93.7746 106.253 94.004 105.655 94.004C105.059 94.004 104.867 93.7746 104.675 93.2769L101.417 85.0412C101.29 84.7346 101.225 84.5427 101.225 84.3508C101.225 83.8531 101.632 83.5634 102.078 83.5634ZM116.029 83.5634C117.325 83.5634 118.244 84.0634 119.117 84.9265H119.158V84.3883C119.158 83.795 119.648 83.5634 120.032 83.5634C120.394 83.5634 120.904 83.795 120.904 84.3883V93.1805C120.904 93.7746 120.394 94.004 120.032 94.004C119.648 94.004 119.158 93.7746 119.158 93.1805V92.4681H119.117C118.306 93.5077 117.239 94.004 116.029 94.004C112.835 94.004 111.043 91.4903 111.043 88.7855C111.043 86.0785 112.835 83.5634 116.029 83.5634ZM116.029 92.5453C118.327 92.5453 119.138 90.5133 119.138 88.7855C119.138 87.0563 118.327 85.0221 116.029 85.0221C113.726 85.0221 112.918 87.0563 112.918 88.7855C112.918 90.5133 113.726 92.5453 116.029 92.5453ZM123.313 83.6803H124.077V81.471C124.077 80.9145 124.44 80.569 125.015 80.569C125.59 80.569 125.953 80.9145 125.953 81.471V83.6803H126.72C127.336 83.6803 127.655 83.9472 127.655 84.4074C127.655 84.8677 127.336 85.139 126.72 85.139H125.953V93.1019C125.953 93.6584 125.59 94.0018 125.015 94.0018C124.44 94.0018 124.077 93.6584 124.077 93.1019V85.139H123.313C122.694 85.139 122.373 84.8677 122.373 84.4074C122.373 83.9472 122.694 83.6803 123.313 83.6803ZM130.062 80.108C130.703 80.108 131.212 80.569 131.212 81.1417C131.212 81.721 130.703 82.182 130.062 82.182C129.422 82.182 128.913 81.721 128.913 81.1417C128.913 80.569 129.422 80.108 130.062 80.108ZM130.062 83.5634C130.639 83.5634 131.001 83.909 131.001 84.4655V93.1019C131.001 93.6584 130.639 94.0018 130.062 94.0018C129.488 94.0018 129.126 93.6584 129.126 93.1019V84.4655C129.126 83.909 129.488 83.5634 130.062 83.5634ZM146.082 83.5634C146.655 83.5634 147.017 83.909 147.017 84.4655V84.8677L147.061 84.9074C147.89 83.9487 149.061 83.5634 150.19 83.5634C151.938 83.5634 154.13 84.5618 154.13 87.4394V93.1019C154.13 93.6584 153.768 94.004 153.195 94.004C152.62 94.004 152.257 93.6584 152.257 93.1019V87.5357C152.257 85.7492 150.874 85.0221 149.638 85.0221C148.403 85.0221 147.017 85.7492 147.017 87.5357V93.1019C147.017 93.6584 146.655 94.004 146.082 94.004C145.505 94.004 145.142 93.6584 145.142 93.1019V84.4655C145.142 83.909 145.505 83.5634 146.082 83.5634ZM161.969 83.6803H162.736V81.2814C162.736 79.8043 163.865 79.0728 165.227 79.0728H165.804C166.292 79.0728 166.865 79.3412 166.865 79.8043C166.865 80.2624 166.548 80.5337 165.844 80.5337H165.377C164.802 80.5337 164.61 80.7792 164.61 81.2042V83.6803H165.781C166.398 83.6803 166.719 83.9487 166.719 84.4074C166.719 84.8677 166.398 85.139 165.781 85.139H164.61V93.1019C164.61 93.6584 164.248 94.004 163.675 94.004C163.098 94.004 162.736 93.6584 162.736 93.1019V85.139H161.969C161.35 85.139 161.033 84.8677 161.033 84.4074C161.033 83.9487 161.35 83.6803 161.969 83.6803ZM172.257 83.5634C175.449 83.5634 177.241 86.0763 177.241 88.7819C177.241 91.4903 175.449 94.0018 172.257 94.0018C169.061 94.0018 167.273 91.4903 167.273 88.7819C167.273 86.0763 169.061 83.5634 172.257 83.5634ZM172.257 92.5453C174.558 92.5453 175.366 90.511 175.366 88.7819C175.366 87.0563 174.558 85.0221 172.257 85.0221C169.954 85.0221 169.146 87.0563 169.146 88.7819C169.146 90.511 169.954 92.5453 172.257 92.5453ZM180.264 83.5634C180.841 83.5634 181.202 83.909 181.202 84.4655V85.3308H181.243C181.673 84.5427 182.715 83.5634 183.8 83.5634C184.46 83.5634 184.846 83.9487 184.846 84.4302C184.846 84.9074 184.46 85.2139 183.675 85.3492C182.565 85.5183 181.202 86.2682 181.202 88.2481V93.1019C181.202 93.6584 180.841 94.004 180.264 94.004C179.691 94.004 179.329 93.6584 179.329 93.1019V84.4655C179.329 83.909 179.691 83.5634 180.264 83.5634ZM208.015 83.5634C209.317 83.5634 210.234 84.0634 211.104 84.9265H211.148V84.3883C211.148 83.795 211.638 83.5634 212.021 83.5634C212.386 83.5634 212.894 83.795 212.894 84.3883V93.1805C212.894 93.7746 212.386 94.004 212.021 94.004C211.638 94.004 211.148 93.7746 211.148 93.1805V92.4681H211.104C210.296 93.5077 209.232 94.004 208.015 94.004C204.823 94.004 203.032 91.4903 203.032 88.7855C203.032 86.0785 204.823 83.5634 208.015 83.5634ZM208.015 92.5453C210.317 92.5453 211.126 90.5133 211.126 88.7855C211.126 87.0563 210.317 85.0221 208.015 85.0221C205.718 85.0221 204.906 87.0563 204.906 88.7855C204.906 90.5133 205.718 92.5453 208.015 92.5453ZM215.301 83.6803H216.068V81.471C216.068 80.9145 216.43 80.569 217.007 80.569C217.58 80.569 217.942 80.9145 217.942 81.471V83.6803H218.709C219.328 83.6803 219.645 83.9472 219.645 84.4074C219.645 84.8677 219.328 85.139 218.709 85.139H217.942V93.1019C217.942 93.6584 217.58 94.0018 217.007 94.0018C216.43 94.0018 216.068 93.6584 216.068 93.1019V85.139H215.301C214.682 85.139 214.363 84.8677 214.363 84.4074C214.363 83.9472 214.682 83.6803 215.301 83.6803ZM222.051 80.108C222.691 80.108 223.201 80.569 223.201 81.1417C223.201 81.721 222.691 82.182 222.051 82.182C221.414 82.182 220.901 81.721 220.901 81.1417C220.901 80.569 221.414 80.108 222.051 80.108ZM222.051 83.5634C222.628 83.5634 222.989 83.909 222.989 84.4655V93.1019C222.989 93.6584 222.628 94.0018 222.051 94.0018C221.476 94.0018 221.115 93.6584 221.115 93.1019V84.4655C221.115 83.909 221.476 83.5634 222.051 83.5634ZM229.977 83.5634C233.065 83.5634 234.855 86.0763 234.855 88.5312C234.855 89.1274 234.619 89.4362 233.811 89.4362H226.76C226.76 91.1823 227.995 92.5453 230.104 92.5453C232.596 92.5453 233.234 91.1617 233.938 91.1617C234.279 91.1617 234.619 91.43 234.619 91.9116C234.619 92.7365 232.3 94.0018 230.083 94.0018C226.462 94.0018 224.885 91.4903 224.885 88.7819C224.885 86.0182 226.804 83.5634 229.977 83.5634ZM232.979 88.1687C232.979 86.7101 232.042 85.0221 229.977 85.0221C227.654 84.9449 226.823 86.6145 226.76 88.1687H232.979ZM248.144 83.6803H248.908V81.471C248.908 80.9145 249.271 80.569 249.846 80.569C250.42 80.569 250.785 80.9145 250.785 81.471V83.6803H251.55C252.167 83.6803 252.489 83.9472 252.489 84.4074C252.489 84.8677 252.167 85.139 251.55 85.139H250.785V93.1019C250.785 93.6584 250.42 94.0018 249.846 94.0018C249.271 94.0018 248.908 93.6584 248.908 93.1019V85.139H248.144C247.525 85.139 247.203 84.8677 247.203 84.4074C247.203 83.9472 247.525 83.6803 248.144 83.6803ZM264.009 83.5634C265.926 83.5634 267.057 84.1597 267.057 84.8493C267.057 85.1948 266.737 85.558 266.289 85.558C265.566 85.558 265.288 85.0221 264.009 85.0221C261.686 85.0221 260.771 87.0563 260.771 88.7819C260.771 90.511 261.686 92.5453 264.009 92.5453C265.33 92.5453 265.672 91.9682 266.268 91.9682C266.693 91.9682 266.993 92.2182 266.993 92.6784C266.993 93.3121 265.947 94.0018 264.009 94.0018C260.559 94.0018 258.899 91.4903 258.899 88.7819C258.899 86.0763 260.559 83.5634 264.009 83.5634ZM273.445 83.5634C274.746 83.5634 275.661 84.0634 276.535 84.9265H276.577V84.3883C276.577 83.795 277.067 83.5634 277.45 83.5634C277.813 83.5634 278.323 83.795 278.323 84.3883V93.1805C278.323 93.7746 277.813 94.004 277.45 94.004C277.067 94.004 276.577 93.7746 276.577 93.1805V92.4681H276.535C275.725 93.5077 274.661 94.004 273.445 94.004C270.252 94.004 268.462 91.4903 268.462 88.7855C268.462 86.0785 270.252 83.5634 273.445 83.5634ZM273.445 92.5453C275.746 92.5453 276.555 90.5133 276.555 88.7855C276.555 87.0563 275.746 85.0221 273.445 85.0221C271.146 85.0221 270.335 87.0563 270.335 88.7855C270.335 90.5133 271.146 92.5453 273.445 92.5453ZM281.838 83.5634C282.411 83.5634 282.774 83.909 282.774 84.4655V85.3308H282.817C283.243 84.5427 284.286 83.5634 285.374 83.5634C286.032 83.5634 286.416 83.9487 286.416 84.4302C286.416 84.9074 286.032 85.2139 285.245 85.3492C284.138 85.5183 282.774 86.2682 282.774 88.2481V93.1019C282.774 93.6584 282.411 94.004 281.838 94.004C281.263 94.004 280.898 93.6584 280.898 93.1019V84.4655C280.898 83.909 281.263 83.5634 281.838 83.5634ZM292.127 83.5634C295.212 83.5634 297 86.0763 297 88.5312C297 89.1274 296.769 89.4362 295.958 89.4362H288.907C288.907 91.1823 290.143 92.5453 292.252 92.5453C294.743 92.5453 295.383 91.1617 296.085 91.1617C296.427 91.1617 296.769 91.43 296.769 91.9116C296.769 92.7365 294.446 94.0018 292.23 94.0018C288.612 94.0018 287.033 91.4903 287.033 88.7819C287.033 86.0182 288.952 83.5634 292.127 83.5634ZM295.127 88.1687C295.127 86.7101 294.191 85.0221 292.127 85.0221C289.804 84.9449 288.972 86.6145 288.907 88.1687H295.127Z" fill="#003E7E"/>
<path fill-rule="evenodd" clip-rule="evenodd" d="M32.5599 56.5448C32.7378 56.622 32.8554 56.7719 32.9098 56.944C39.5832 60.656 47.4227 66.5016 47.1411 73.383C46.8154 81.3607 35.5727 88.5502 13.7256 94.7538C13.3903 94.8501 13.0404 94.6582 12.9382 94.3251C12.8345 93.9914 13.0183 93.637 13.3506 93.5289C13.6307 93.4348 41.4639 84.1257 42.102 71.67C42.3799 66.2582 37.4365 60.9339 27.4157 55.8132C26.4203 55.3618 25.3233 54.8398 24.1661 54.2451C23.8816 54.1142 23.6111 53.9826 23.3192 53.8525C23.231 53.8128 23.1596 53.7532 23.1001 53.6841C16.4568 50.1177 8.59757 44.4243 8.72917 37.4936C8.88283 29.4123 19.9512 21.8684 41.6278 15.0685C41.9609 14.9641 42.316 15.1457 42.4277 15.4766C42.5387 15.8081 42.366 16.1669 42.0366 16.2853C41.7587 16.3853 14.1307 26.4781 13.7528 39.1066C13.5697 45.2418 19.8968 51.1102 32.5599 56.5448Z" fill="#003E7E"/>
<path fill-rule="evenodd" clip-rule="evenodd" d="M51.5753 46.858C51.2974 46.9588 23.6715 57.0508 23.2936 69.6779C23.1098 75.8124 29.4377 81.6793 42.1 87.1138C42.4184 87.2513 42.5706 87.616 42.4441 87.9373C42.3184 88.26 41.9589 88.4247 41.6324 88.3078C40.6686 87.9645 18.048 79.7802 18.27 68.0649C18.423 59.9828 29.4921 52.4389 51.1665 45.6413C51.4988 45.5376 51.8546 45.7185 51.9657 46.0501C52.0774 46.3809 51.9046 46.7397 51.5753 46.858ZM45.2099 41.6426C42.6536 42.7093 40.4201 40.3964 39.876 38.6371C39.343 35.9279 42.3345 34.0568 45.5415 33.4943C46.7127 33.4252 47.6978 33.8877 48.2103 34.9155C49.3564 37.6159 48.333 40.4464 45.2099 41.6426ZM3.81676 61.2959C3.48151 61.3915 3.13082 61.2003 3.02863 60.8665C2.9257 60.5335 3.10877 60.1791 3.44181 60.0703C3.72192 59.9769 31.5529 50.6701 32.1925 38.2143C32.5049 32.1085 26.1852 26.113 13.4082 20.3968C13.0913 20.2549 12.9443 19.888 13.0766 19.5667C13.2082 19.2462 13.5706 19.0896 13.8949 19.2109C14.8668 19.5756 37.7079 28.2678 37.2308 39.9273C36.9051 47.9042 25.6625 55.0945 3.81676 61.2959Z" fill="#0596D6"/>
</svg>
