<svg width="300" height="112" viewBox="0 0 300 112" fill="none" xmlns="http://www.w3.org/2000/svg">
<path fill-rule="evenodd" clip-rule="evenodd" d="M258.973 32.0971C260.396 31.8125 261.937 32.16 263.089 33.0532C264.045 33.7863 264.725 34.8772 264.952 36.0671C265.184 37.2213 264.996 38.4532 264.438 39.4886C263.798 40.7099 262.645 41.6488 261.319 42.0127C260.056 42.3723 258.656 42.2118 257.524 41.5353C256.474 40.9186 255.639 39.9261 255.227 38.7711C254.78 37.5572 254.826 36.1662 255.373 34.9921C256.03 33.5271 257.404 32.4083 258.973 32.0971ZM4.82901 32.3638C9.48165 32.361 14.1341 32.3694 18.7866 32.3598C20.7697 41.2433 22.7312 50.1318 24.7075 59.0174C25.4122 62.1331 25.9994 65.2742 26.6409 68.4036C26.6871 68.4043 26.7781 68.4043 26.8236 68.405C27.2277 66.2774 27.6226 64.1479 28.0273 62.021C28.2352 60.8441 28.5188 59.6821 28.7667 58.5135C30.6764 49.7974 32.5828 41.0799 34.4932 32.3645C39.2361 32.3619 43.9796 32.3673 48.7225 32.361C49.7089 48.327 50.675 64.2943 51.6499 80.2607C48.6986 80.2594 45.7475 80.2648 42.7963 80.2581C42.2884 70.9881 41.7807 61.7186 41.2721 52.4494C41.0786 49.0335 40.9523 45.6146 40.788 42.198C40.7248 42.2015 40.6616 42.2062 40.6001 42.211C40.0609 44.7755 39.5036 47.3359 38.9556 49.8985C38.509 51.9017 38.0324 53.8979 37.5746 55.8982C35.693 64.0192 33.8163 72.1405 31.9337 80.2607C28.4048 80.2607 24.8751 80.2614 21.3461 80.2607C18.9727 69.997 16.5898 59.7363 14.2232 49.4703C13.6791 47.0481 13.1307 44.6265 12.5842 42.2043C12.5231 42.2029 12.4627 42.2022 12.4023 42.2022C12.2401 45.6973 12.0994 49.1941 11.9134 52.6881C11.4355 61.8795 10.9635 71.0709 10.4829 80.2622C7.65525 80.2594 4.82766 80.2622 2 80.2607C2.94029 64.2949 3.8854 48.3289 4.82901 32.3638ZM117.368 32.3638C120.227 32.3631 123.087 32.3638 125.946 32.3638C125.95 36.7775 125.952 41.1913 125.946 45.6058C129.111 45.6058 132.276 45.6058 135.442 45.605C135.446 42.8462 135.434 40.0869 135.448 37.3281C138.306 37.3348 141.164 37.3267 144.022 37.3323C144.019 40.0895 144.023 42.8462 144.02 45.6036C147.061 45.6086 150.102 45.6043 153.144 45.6058C153.145 47.9339 153.148 50.2617 153.143 52.5895C150.103 52.5888 147.062 52.5895 144.021 52.5895C144.021 57.2522 144.021 61.9156 144.021 66.579C144.03 67.4652 144 68.3523 144.046 69.238C144.12 70.3233 144.405 71.4482 145.129 72.2848C145.83 73.1045 146.884 73.5299 147.93 73.6647C149.02 73.7954 150.126 73.7378 151.211 73.5889C151.859 73.5094 152.495 73.342 153.144 73.2695C153.149 75.633 153.145 77.9965 153.145 80.3599C151.66 80.6998 150.145 80.9063 148.625 80.9843C146.713 81.0321 144.78 80.8906 142.932 80.3688C141.304 79.9086 139.745 79.1022 138.542 77.8897C137.306 76.6595 136.482 75.051 136.048 73.3651C135.664 71.9113 135.533 70.4012 135.53 68.9001C135.528 63.4633 135.53 58.0265 135.526 52.5895C132.364 52.5888 129.202 52.5895 126.039 52.5895C126.038 58.3684 126.039 64.1472 126.039 69.9252C126.039 70.6618 126.085 71.4189 126.365 72.1083C126.579 72.6416 126.977 73.1102 127.502 73.3521C128.177 73.6723 128.944 73.6551 129.673 73.6339C130.08 73.6278 130.469 73.4938 130.872 73.4521C130.881 74.9423 130.874 76.4331 130.876 77.9233C130.861 78.7016 130.905 79.4941 130.855 80.2635C128.49 80.7901 125.985 80.944 123.63 80.2812C122.503 79.9694 121.432 79.4202 120.561 78.6304C119.463 77.6538 118.736 76.3251 118.282 74.9361C116.892 77.1122 114.889 78.9121 112.508 79.9127C111.135 80.5042 109.656 80.8345 108.17 80.9501C105.04 81.1901 101.822 80.5118 99.1137 78.8923C96.8387 77.5471 94.9493 75.5714 93.639 73.2695C92.1291 70.6569 91.3558 67.661 91.1476 64.6595C90.9229 61.3152 91.3083 57.889 92.5704 54.7705C93.5718 52.2825 95.1495 50.012 97.2202 48.3093C99.3812 46.5106 102.062 45.3677 104.841 45.0127C107.831 44.6305 110.985 45.0127 113.663 46.4667C115.085 47.2348 116.342 48.2996 117.365 49.5545C117.369 43.8243 117.372 38.094 117.368 32.3638ZM107.722 52.1984C106.592 52.331 105.476 52.6553 104.487 53.2303C103.199 53.9629 102.163 55.1029 101.469 56.4117C100.764 57.686 100.39 59.1178 100.183 60.5541C99.997 62.0251 99.9815 63.5186 100.125 64.9945C100.294 66.473 100.652 67.9461 101.334 69.2728C101.899 70.3753 102.681 71.3778 103.675 72.1186C104.737 72.9379 106.026 73.4192 107.341 73.625C108.906 73.8563 110.533 73.7392 112.029 73.2106C113.315 72.747 114.479 71.9468 115.37 70.9025C116.232 69.904 116.839 68.7024 117.25 67.4503C117.739 65.9128 117.926 64.2915 117.911 62.6808C117.888 61.1893 117.693 59.6896 117.223 58.2713C116.791 56.9466 116.106 55.6931 115.152 54.6761C114.3 53.7659 113.228 53.0717 112.056 52.6574C110.671 52.1739 109.176 52.0369 107.722 52.1984ZM61.6625 47.5092C64.2988 45.8016 67.4339 44.9706 70.5508 44.8843C73.5936 44.792 76.6996 45.3391 79.4205 46.7528C81.7676 47.9473 83.7737 49.7946 85.1927 52.0227C86.9028 54.7048 87.7699 57.8725 87.939 61.0411C88.0427 63.0715 87.8995 65.1155 87.5248 67.1133C79.2488 67.114 70.9724 67.1133 62.6963 67.1133C62.9918 68.4283 63.575 69.6954 64.4901 70.6905C65.446 71.7622 66.7136 72.5137 68.0571 72.9828C70.2215 73.7604 72.5507 73.8576 74.8278 73.8329C75.3492 73.8173 75.8841 73.8898 76.392 73.7304C79.1804 73.4234 81.9293 72.667 84.4522 71.4249C84.8205 71.2275 85.1785 71.0079 85.5499 70.8142C85.7753 70.7035 85.9743 70.5154 86.2369 70.5016C86.2397 72.8372 86.2403 75.1734 86.2397 77.5095C83.7813 78.9628 81.0977 80.0556 78.2883 80.5774C76.6128 80.9063 74.9019 81.0219 73.1965 80.9966C69.882 80.9904 66.5241 80.4727 63.4766 79.1193C61.1636 78.0861 59.048 76.548 57.475 74.5394C55.7131 72.3353 54.6323 69.6264 54.1966 66.8424C53.9161 65.1045 53.8775 63.3335 54.0004 61.5793C54.2142 58.6118 54.9787 55.6539 56.451 53.0608C57.7119 50.8257 59.4994 48.8816 61.6625 47.5092ZM66.6802 53.2475C65.3544 53.9841 64.3006 55.1645 63.6212 56.5198C63.0013 57.7249 62.6672 59.0605 62.5172 60.4042C68.2662 60.3982 74.0158 60.4099 79.7655 60.3989C79.6012 58.7719 79.2509 57.1245 78.4165 55.7034C77.7744 54.5871 76.8123 53.6571 75.6643 53.0813C74.2359 52.3515 72.6079 52.1219 71.0219 52.1397C69.5181 52.1628 67.9906 52.4809 66.6802 53.2475ZM231.71 45.768C233.251 45.1064 234.94 44.8571 236.609 44.8748C238.245 44.8953 239.89 45.1503 241.429 45.7248C243.821 46.5913 245.883 48.2886 247.274 50.4258C248.887 52.8795 249.678 55.8017 249.914 58.7144C250.016 60.2162 249.986 61.7222 249.99 63.2267C249.99 68.9364 249.99 74.6455 249.99 80.3544C247.13 80.3552 244.27 80.3552 241.41 80.3544C241.41 74.6215 241.41 68.8885 241.41 63.1557C241.396 61.5566 241.482 59.9446 241.209 58.3615C240.971 56.8993 240.466 55.436 239.499 54.2953C238.735 53.3843 237.68 52.7448 236.542 52.4357C234.98 52.0227 233.307 52.0378 231.75 52.4623C230.565 52.7988 229.459 53.4506 228.64 54.3813C227.628 55.5043 227.038 56.9562 226.763 58.4328C226.603 59.2507 226.548 60.0849 226.536 60.9173C226.601 60.9583 226.633 61.0199 226.626 61.1005C226.626 67.5186 226.626 73.9369 226.626 80.3552C223.764 80.3552 220.902 80.3552 218.04 80.3552C218.042 68.7724 218.042 57.1895 218.04 45.6064C220.777 45.605 223.517 45.605 226.254 45.6064C226.254 47.4462 226.256 49.2857 226.254 51.1262C226.881 49.8568 227.698 48.6701 228.735 47.7061C229.6 46.8854 230.618 46.2329 231.71 45.768ZM283.392 45.5799C286.412 44.7538 289.614 44.6701 292.685 45.2401C294.531 45.5805 296.35 46.1563 297.998 47.0728C298.002 49.6195 297.998 52.1669 297.998 54.7137C297.727 54.7094 297.519 54.5255 297.289 54.4128C294.263 52.7196 290.683 51.9371 287.245 52.5014C285.951 52.7345 284.685 53.1846 283.586 53.9177C282.515 54.6181 281.617 55.5768 280.955 56.673C280.254 57.8378 279.815 59.1479 279.583 60.4863C279.331 62.0469 279.326 63.6486 279.572 65.2105C279.831 66.7261 280.354 68.212 281.224 69.4842C281.943 70.551 282.904 71.4517 284.01 72.1013C285.361 72.905 286.916 73.3029 288.473 73.4302C291.516 73.6236 294.624 72.9453 297.266 71.3937C297.502 71.2704 297.715 71.0701 297.998 71.0585C297.998 73.6388 298.004 76.2191 297.995 78.7994C295.228 80.2785 292.076 80.9481 288.957 80.9953C285.933 81.0253 282.881 80.4187 280.166 79.0578C277.658 77.8221 275.467 75.938 273.865 73.6346C272.262 71.3464 271.248 68.6614 270.844 65.8958C270.362 62.6153 270.661 59.2013 271.827 56.0917C272.732 53.6715 274.176 51.4509 276.052 49.681C278.107 47.7217 280.666 46.3246 283.392 45.5799ZM193.81 45.0218C196.947 44.7913 200.16 45.2256 203.061 46.4777C205.483 47.5117 207.665 49.1195 209.356 51.1499C210.955 53.0396 212.099 55.3005 212.768 57.686C213.664 60.9269 213.712 64.3994 212.926 67.6692C212.301 70.2336 211.129 72.6752 209.446 74.707C207.727 76.7956 205.5 78.4512 203.018 79.5017C199.926 80.825 196.49 81.2244 193.16 80.881C190.447 80.5979 187.778 79.7547 185.446 78.3172C183.266 76.9788 181.392 75.1364 180.029 72.9616C178.544 70.6154 177.655 67.9065 177.364 65.1448C177.01 61.807 177.465 58.36 178.818 55.2826C179.932 52.7263 181.678 50.4484 183.873 48.7421C186.699 46.5024 190.239 45.2748 193.81 45.0218ZM194.35 52.2723C193.099 52.4021 191.86 52.7366 190.756 53.3515C189.695 53.943 188.764 54.7719 188.058 55.7649C187.397 56.673 186.916 57.7065 186.589 58.7801C186.055 60.5472 185.922 62.4198 186.07 64.2554C186.191 65.6332 186.503 67.0004 187.058 68.2675C187.635 69.5709 188.493 70.7611 189.605 71.6529C190.598 72.4563 191.786 73.0013 193.026 73.2859C194.606 73.6462 196.267 73.6421 197.845 73.2784C199.203 72.97 200.493 72.3319 201.528 71.3895C202.457 70.5517 203.18 69.4938 203.676 68.3449C204.302 66.9279 204.599 65.3823 204.687 63.8395C204.775 62.1659 204.645 60.4693 204.186 58.8533C203.792 57.4746 203.147 56.1527 202.2 55.0715C201.276 54.0065 200.065 53.2016 198.735 52.7524C197.33 52.2762 195.823 52.1376 194.35 52.2723ZM169.695 46.0852C171.029 45.3589 172.574 45.0841 174.08 45.1606C175.061 45.1874 176.042 45.3528 176.965 45.6952C176.968 48.3953 176.967 51.0959 176.966 53.796C176.042 53.5566 175.102 53.3501 174.144 53.337C172.688 53.3235 171.201 53.5081 169.86 54.1086C168.626 54.633 167.565 55.5548 166.862 56.7031C165.892 58.2904 165.576 60.1889 165.567 62.0277C165.488 62.0594 165.456 62.1153 165.469 62.196C165.467 68.2176 165.469 74.2392 165.466 80.2607C162.607 80.2614 159.746 80.2614 156.887 80.2607C156.89 68.6777 156.889 57.0949 156.887 45.5114C159.625 45.5114 162.363 45.5106 165.102 45.5123C165.101 47.6308 165.106 49.7501 165.101 51.8695C165.523 50.7437 166.073 49.6633 166.774 48.6874C167.548 47.6241 168.529 46.698 169.695 46.0852ZM255.558 45.6058C258.418 45.6058 261.278 45.605 264.138 45.6058C264.138 53.052 264.14 60.4987 264.14 67.9449C264.142 68.8085 264.128 69.6723 264.147 70.5352C264.165 71.2951 264.325 72.0918 264.806 72.6978C265.209 73.2071 265.822 73.4978 266.445 73.6285C267.555 73.8658 268.687 73.6504 269.798 73.5436C269.795 75.7861 269.805 78.0278 269.793 80.2697C268.122 80.6027 266.415 80.7887 264.714 80.6957C263.326 80.626 261.933 80.3839 260.648 79.8381C259.35 79.2992 258.172 78.4293 257.346 77.2783C256.502 76.1295 256.009 74.7509 255.766 73.3502C255.493 71.7676 255.572 70.1558 255.56 68.5574C255.56 60.907 255.558 53.2564 255.558 45.6058Z" fill="#003E7E"/>
</svg>
