<svg width="170" height="112" viewBox="0 0 170 112" fill="none" xmlns="http://www.w3.org/2000/svg">
<path fill-rule="evenodd" clip-rule="evenodd" d="M126.443 49.7847C126.73 49.7918 127.064 49.7847 127.39 49.8559C128.478 50.098 128.971 50.7852 128.805 51.8961C128.61 53.1636 128.071 54.2709 127.251 55.2429C126.092 56.6101 124.638 57.5287 122.989 58.1661C121.492 58.7429 119.928 59.0384 118.336 59.195C118.237 59.2022 118.127 59.2022 118.027 59.2057C117.329 59.2129 117.24 59.1203 117.414 58.4616C117.655 57.5359 117.978 56.6351 118.407 55.7805C119.169 54.2602 120.18 52.9286 121.446 51.7892C122.865 50.5146 124.648 49.7883 126.443 49.7847V49.7847ZM34.9659 37.0482C36.2178 37.0304 37.4483 37.1621 38.6647 37.4327C39.4591 37.6143 40.2145 37.8813 40.9166 38.3086C42.1898 39.0741 42.8423 40.2205 42.9239 41.6946C42.9629 42.4245 42.9239 43.1508 42.782 43.87C42.4203 45.6432 41.9628 47.3914 41.2252 49.0541C40.1755 51.4076 38.6434 53.3017 36.2319 54.3699C35.1432 54.8505 34.0013 55.1318 32.831 55.3312C31.4586 55.5662 30.0684 55.5662 28.6854 55.6659C28.5613 55.6695 28.4371 55.6659 28.313 55.6481C28.0967 55.6089 27.9868 55.4736 28.0364 55.2458C28.0754 55.0428 28.1215 54.8399 28.1783 54.6369C29.6819 49.0363 31.1926 43.4392 32.7034 37.8422C32.9055 37.0873 32.9516 37.0589 33.7247 37.0482C34.1361 37.0446 34.5545 37.0482 34.9659 37.0482V37.0482ZM149.432 51.325C149.371 50.9867 149.481 50.7589 149.549 50.5203C149.917 49.2207 150.29 47.9247 150.655 46.6251C150.811 46.0697 150.74 45.9629 150.208 45.9629C147.68 45.9521 145.155 45.9521 142.626 45.9629C142.087 45.9629 142.006 46.0377 141.85 46.5789C141.686 47.1414 141.548 47.704 141.396 48.2701C139.154 56.6194 136.906 64.9687 134.658 73.3216C134.64 73.4035 134.608 73.4818 134.597 73.5637C134.541 73.9019 134.594 73.9767 134.92 74.0123C135.026 74.0266 135.129 74.0193 135.232 74.0193C137.76 74.0193 140.289 74.0193 142.814 74.0158C143.562 74.0158 143.583 73.9911 143.786 73.2539C144.594 70.2631 145.392 67.2723 146.211 64.285C146.757 62.2805 147.229 60.251 148.055 58.3355C148.864 56.4805 149.772 54.6824 151.052 53.1051C151.804 52.1758 152.655 51.364 153.772 50.8834C154.478 50.5807 155.201 50.4526 155.953 50.6626C156.432 50.7979 156.754 51.097 156.879 51.5812C156.942 51.8625 157.031 52.1473 157.042 52.4357C157.162 54.5898 160.184 56.0354 162.067 55.1061C162.826 54.7323 163.468 54.2373 163.957 53.5395C164.705 52.4713 164.89 51.2786 164.73 50.0289C164.496 48.1774 163.571 46.7639 161.844 46.0376C160.109 45.3077 158.304 45.2115 156.513 45.9058C155.776 46.1871 155.077 46.5503 154.414 46.9811C152.765 48.0528 151.332 49.363 150.024 50.8228C149.864 51.0009 149.729 51.2252 149.431 51.3248L149.432 51.325ZM92.8393 74.0264V74.023C96.4849 74.023 100.134 74.0264 103.78 74.023C104.507 74.0195 104.542 73.9909 104.73 73.3109C105.088 71.9864 105.446 70.6619 105.798 69.3338C106.032 68.4579 106.032 68.4544 105.149 68.4544H92.8357C92.6301 68.4544 92.4243 68.4579 92.2187 68.4509C91.6974 68.4188 91.6193 68.2978 91.8782 67.8385C92.2612 67.1691 92.7116 66.5425 93.1868 65.9408C94.7791 63.9327 96.6338 62.1773 98.4851 60.4149C100.801 58.211 103.163 56.0569 105.29 53.6607C106.681 52.0834 107.957 50.4206 108.961 48.5656C109.326 47.8856 109.649 47.1913 109.89 46.4543C110.004 46.0947 109.925 45.9985 109.564 45.9629C109.333 45.9417 109.106 45.9521 108.876 45.9521H88.4845C88.2789 45.9521 88.0731 45.9486 87.8675 45.9521C87.2823 45.9734 87.2043 46.0198 87.0447 46.593C86.7751 47.5365 86.5341 48.4836 86.2787 49.4271C86.0126 50.4241 86.0234 50.4383 87.0553 50.4383C90.6407 50.4383 94.2296 50.4348 97.8114 50.4453C98.0844 50.4453 98.4674 50.2958 98.5951 50.6269C98.6944 50.8832 98.3894 51.0969 98.2263 51.2998C97.1872 52.578 95.9885 53.6996 94.8076 54.8354C92.1762 57.3776 89.5059 59.8699 87.0731 62.6043C85.6368 64.2208 84.2892 65.9085 83.1863 67.7777C82.2217 69.4155 81.4309 71.1281 81.2039 73.0543C81.0903 74.0085 81.0903 74.0263 82.0869 74.0263H92.8394L92.8393 74.0264ZM119.586 74.913C121.164 74.9522 122.682 74.7635 124.182 74.4003C127.622 73.5636 130.544 71.8332 132.98 69.2732C133.423 68.8032 133.423 68.7534 133.051 68.2122C132.452 67.3612 131.859 66.5103 131.253 65.6629C130.891 65.1537 130.803 65.1431 130.327 65.5418C129.664 66.1008 129.012 66.6848 128.334 67.2295C127.341 68.0199 126.267 68.6964 125.089 69.1806C123.338 69.9034 121.561 70.0743 119.766 69.3302C117.912 68.5647 116.561 66.7346 116.603 64.7336C116.614 64.2743 116.6 63.815 116.614 63.3557C116.634 62.6472 116.709 62.5653 117.412 62.551C118.405 62.5263 119.397 62.5048 120.394 62.4371C123.057 62.2555 125.646 61.7321 128.157 60.8385C130.086 60.1477 131.763 59.0546 133.132 57.5272C134.37 56.1564 135.253 54.5898 135.572 52.7562C135.842 51.2038 135.746 49.687 134.771 48.3412C133.792 46.9775 132.43 46.1906 130.863 45.7314C128.873 45.1474 126.848 45.1403 124.827 45.4643C117.83 46.6037 112.674 50.3208 109.521 56.7119C108.12 59.5602 107.521 62.6258 107.975 65.8089C108.553 69.8749 110.805 72.645 114.621 74.1155C116.231 74.735 117.904 74.9771 119.585 74.913L119.586 74.913ZM18.4195 74.0265C19.6607 74.0265 20.9055 74.0299 22.1431 74.0265C22.9375 74.023 22.9552 74.0052 23.1645 73.2396C23.8915 70.5336 24.622 67.8205 25.3526 65.1075C25.7072 63.783 26.0618 62.4585 26.4306 61.134C26.5831 60.5785 26.647 60.5501 27.2037 60.518C27.6789 60.4933 28.1541 60.4468 28.6294 60.4397C30.9132 60.4254 33.1793 60.226 35.4383 59.9021C37.9916 59.5424 40.4847 58.9478 42.8608 57.9189C45.9708 56.5659 48.4107 54.4688 49.9747 51.4139C50.9748 49.4627 51.6592 47.3834 52.0564 45.2258C52.5316 42.6693 51.982 40.3052 50.457 38.1938C49.3966 36.7234 47.9675 35.7051 46.3574 34.936C43.6303 33.6329 40.7188 33.1059 37.7434 33.0027C33.7006 32.8567 29.6614 32.9599 25.6221 32.9528C24.9625 32.9528 24.8915 33.024 24.7142 33.6471C24.6866 33.729 24.668 33.8073 24.6468 33.8892C22.7957 40.7538 20.948 47.622 19.0968 54.4866C17.4372 60.6284 15.781 66.7738 14.132 72.9192C14.0646 73.1577 14.0041 73.3998 13.9583 73.6455C13.9086 73.8734 14.015 74.0015 14.2525 74.0122C14.4192 74.023 14.586 74.0265 14.749 74.0265H18.4194L18.4195 74.0265ZM95.63 6H105.581C105.836 6.09257 106.109 6.08544 106.375 6.09257C106.918 6.1068 107.453 6.10326 107.989 6.14241C111.216 6.36316 114.433 6.63375 117.635 7.07525C124.426 8.01166 131.086 9.5035 137.551 11.8071C143.36 13.8793 148.874 16.5319 153.903 20.1422C158.074 23.133 161.702 26.6508 164.482 31.0088C166.595 34.3236 168.025 37.9054 168.702 41.7899C168.833 42.5518 168.854 43.3209 169 44.0757V48.9429C168.854 49.4093 168.918 49.8971 168.854 50.3635C168.383 53.8599 167.344 57.1818 165.861 60.3684C163.641 65.143 160.595 69.3551 157.052 73.2182C154.031 76.5188 150.701 79.4846 147.147 82.1977C140.817 87.0257 133.976 90.9885 126.749 94.2962C116.486 99.0067 105.769 102.297 94.6973 104.415C90.9488 105.127 87.1827 105.704 83.3916 106.113C81.4341 106.32 79.473 106.491 77.5154 106.633C75.6181 106.769 73.7102 106.875 71.8094 106.911C71.6249 106.918 71.4405 106.968 71.2597 107H65.4153C65.1955 106.915 64.9685 106.911 64.738 106.904C62.5889 106.84 60.4363 106.715 58.2872 106.548C55.3544 106.316 52.4358 105.96 49.5278 105.519C49.4038 105.501 49.2833 105.469 49.159 105.441C48.9072 105.394 48.8186 105.234 48.8717 104.985C48.9145 104.785 48.9676 104.582 49.0208 104.379C49.4889 102.613 49.9641 100.84 50.4357 99.0744C54.4963 83.9495 58.5568 68.8246 62.6173 53.6961C62.848 52.8345 63.0784 51.9693 63.3195 51.1041C63.4897 50.5095 63.5606 50.4596 64.1884 50.4418C64.2735 50.4384 64.3551 50.4383 64.4367 50.4383H71.7102C71.877 50.4383 72.0437 50.4418 72.2102 50.4561C72.4621 50.4774 72.5862 50.6163 72.5329 50.8727C72.494 51.1006 72.4336 51.3178 72.3735 51.5421C70.462 58.6951 68.5505 65.8481 66.6426 73.0046C66.5964 73.1827 66.5505 73.3642 66.5078 73.5458C66.4439 73.8271 66.5502 73.9909 66.8448 74.0122C66.9688 74.0192 67.0931 74.0266 67.2136 74.0266H74.6786C75.3879 74.0231 75.4234 73.998 75.6149 73.2967C76.0262 71.7657 76.4269 70.2382 76.8312 68.7108C78.7675 61.4581 80.7038 54.2018 82.6401 46.9491C82.9062 45.9522 82.9166 45.9522 81.8847 45.9522H66.0291C65.8235 45.9522 65.6142 45.9557 65.4086 45.9452C64.8659 45.9166 64.795 45.8277 64.9191 45.2901C65.1144 44.4783 65.3199 43.6736 65.522 42.8654C66.3341 39.5292 67.1285 36.1895 68.2491 32.9424C68.7279 31.5645 69.2457 30.2008 69.962 28.9297C70.8309 27.3845 71.9302 26.0457 73.5119 25.1734C74.5864 24.5859 75.7425 24.2548 76.9731 24.4008C78.1576 24.5432 78.7604 25.2909 78.7569 26.4801C78.7535 27.0248 78.5617 27.5019 78.3384 27.9719C78.0939 28.4989 77.8348 29.0152 77.6185 29.5635C76.8596 31.4932 78.0795 34.2384 80.2002 34.9505C83.5302 36.072 87.0163 34.2526 87.9099 30.8381C88.0802 30.1937 88.183 29.5385 88.0979 28.862C87.9204 27.4272 87.3141 26.1917 86.3034 25.1734C85.0409 23.9059 83.5586 22.9695 81.8209 22.4817C79.3562 21.7945 76.8524 21.6272 74.3062 21.8479C70.2102 22.204 66.8235 23.9842 63.9935 26.9216C61.8906 29.1077 60.4046 31.6926 59.1883 34.4484C57.9825 37.1971 57.1314 40.0704 56.3441 42.9615C54.6135 49.3455 52.9006 55.733 51.1877 62.124C48.3542 72.6702 45.5243 83.2163 42.6943 93.7624C41.8822 96.7959 41.0701 99.8295 40.2509 102.863C40.0772 103.511 40.0133 103.532 39.3856 103.383C39.2828 103.361 39.1834 103.329 39.0875 103.304C37.4846 102.874 35.8923 102.404 34.3213 101.88C27.8493 99.7369 21.7141 96.8885 16.1712 92.8652C11.9653 89.8138 8.33031 86.2035 5.57837 81.7601C3.19168 77.9219 1.69512 73.7703 1.2164 69.2628C1.18519 68.9673 1.12433 68.6895 1 68.4225V63.6764C1.14554 63.3951 1.19139 63.0889 1.22682 62.7792C1.28342 62.2593 1.34388 61.7431 1.429 61.2303C2.30496 55.9288 4.37955 51.1079 7.25918 46.6181C10.7133 41.2311 15.0504 36.6453 19.9195 32.5471C25.1042 28.182 30.75 24.5147 36.7255 21.3423C44.5771 17.1766 52.8046 13.9472 61.3441 11.5154C72.359 8.38219 83.576 6.52006 95.02 6.0928C95.2256 6.08212 95.4313 6.07501 95.63 6.00027" fill="url(#paint0_linear)"/>
<defs>
<linearGradient id="paint0_linear" x1="0.953855" y1="66.0771" x2="168.874" y2="66.0771" gradientUnits="userSpaceOnUse">
<stop stop-color="#00ADEC"/>
<stop offset="0.2" stop-color="#00ABEB"/>
<stop offset="0.4" stop-color="#009FE3"/>
<stop offset="0.6" stop-color="#0095DA"/>
<stop offset="0.8" stop-color="#0082CA"/>
<stop offset="1" stop-color="#006FB9"/>
</linearGradient>
</defs>
</svg>
