<svg width="300" height="97" viewBox="0 0 300 97" fill="none" xmlns="http://www.w3.org/2000/svg">
<g clip-path="url(#clip0)">
<path d="M149.768 0.0748372C143.975 0.0719614 138.311 1.7874 133.493 5.00412C128.675 8.22085 124.919 12.7943 122.701 18.146C120.482 23.4976 119.901 29.387 121.031 35.069C122.16 40.751 124.95 45.9704 129.046 50.0668C133.142 54.1632 138.362 56.9526 144.044 58.0821C149.726 59.2115 155.615 58.6304 160.967 56.4121C166.318 54.1938 170.892 50.4381 174.109 45.62C177.325 40.802 179.041 35.1381 179.038 29.3449C179.063 25.4941 178.323 21.6766 176.861 18.1141C175.399 14.5515 173.244 11.3149 170.521 8.59186C167.798 5.86887 164.561 3.7138 160.999 2.25174C157.436 0.789672 153.619 0.0497245 149.768 0.0748372V0.0748372Z" fill="white"/>
<path d="M166.693 45.9625C166.603 43.1755 165.698 40.476 164.09 38.1979V38.1106C163.476 37.2683 162.779 36.489 162.011 35.7841C162.011 35.7841 161.735 36.0168 161.226 36.3658C158.381 38.2377 155.09 39.322 151.689 39.5081C148.289 39.6942 144.899 38.9755 141.867 37.4253C138.834 35.8751 136.267 33.5486 134.426 30.6831C132.586 27.8175 131.538 24.5153 131.389 21.1128C131.284 18.2454 131.779 15.3878 132.843 12.7229V12.6211C132.89 15.1945 133.633 17.707 134.995 19.8914V19.8914C135.704 21.0133 136.559 22.0354 137.539 22.9303V22.9303L137.728 22.7849C137.932 22.625 138.165 22.4505 138.325 22.3487C141.167 20.4911 144.449 19.4182 147.84 19.2388C151.231 19.0593 154.608 19.7798 157.631 21.3271C160.653 22.8744 163.212 25.1935 165.049 28.0491C166.886 30.9048 167.934 34.1954 168.089 37.5872C168.22 40.4893 167.724 43.3855 166.635 46.0788L166.693 45.9625Z" fill="url(#paint0_linear)"/>
<path d="M149.767 58.6839C143.238 58.6357 136.911 56.4113 131.789 52.3627C126.666 48.3141 123.041 42.6727 121.485 36.3315C119.93 29.9902 120.534 23.3113 123.202 17.352C125.87 11.3928 130.449 6.49357 136.215 3.42991L136.375 3.32812C133.922 5.60293 131.99 8.38198 130.712 11.4743C129.434 14.5666 128.841 17.8988 128.974 21.242C129.15 24.9676 130.283 28.5848 132.264 31.7451C134.245 34.9053 137.006 37.502 140.282 39.2847C143.558 41.0674 147.238 41.976 150.968 41.9229C154.697 41.8697 158.35 40.8567 161.574 38.9815V38.9815L162.068 39.6067C163.221 41.2353 163.945 43.1288 164.171 45.1114C164.397 47.0941 164.119 49.1018 163.362 50.9483C159.945 59.1201 149.767 58.6839 149.767 58.6839Z" fill="url(#paint1_linear)"/>
<path d="M135.969 8.20085C138.412 1.45405 145.74 0.29081 149.768 0C156.363 0.00430411 162.764 2.22997 167.938 6.31798C173.113 10.406 176.76 16.118 178.29 22.5326C179.821 28.9472 179.146 35.6903 176.375 41.6743C173.603 47.6584 168.897 52.5343 163.014 55.5157V55.5157C165.488 53.2335 167.434 50.4393 168.718 47.3278C170.001 44.2164 170.59 40.8625 170.445 37.5C170.268 33.7822 169.138 30.1724 167.163 27.0175C165.189 23.8627 162.435 21.2689 159.168 19.4858C155.901 17.7026 152.23 16.7899 148.509 16.8355C144.787 16.881 141.14 17.8834 137.917 19.746L137.423 19.1208C136.325 17.5497 135.62 15.738 135.367 13.8378C135.114 11.9377 135.32 10.0046 135.969 8.20085V8.20085Z" fill="url(#paint2_linear)"/>
<path d="M0 70.1445H16.9252C24.6171 70.1445 28.7757 73.0526 28.7757 77.7638C28.7757 82.4749 24.6171 85.4121 16.9252 85.3685H5.11826V95.9685H0V70.1445ZM5.11826 82.4603H15.2094C21.0256 82.4603 23.6429 80.8173 23.6429 77.7638C23.6429 74.7103 20.9965 73.0381 15.2094 73.0381H5.11826V82.4603Z" fill="#1D1D1B"/>
<path d="M40.2617 70.1445H35.6523V73.8814H40.2617V70.1445V70.1445ZM35.6523 95.9685H40.2617V77.2403H35.6523V95.9685Z" fill="#1D1D1B"/>
<path d="M72.3224 89.9756C71.0865 94.1051 66.6516 96.3589 60.3847 96.3589C51.4568 96.3589 47.2255 92.2148 46.9492 86.5149C46.9492 80.9459 52.4892 76.8164 60.1229 76.8164C70.0105 76.8164 73.0349 82.9961 72.7732 87.4891H51.8203C51.6894 90.7462 54.4521 93.6252 60.5446 93.6252C64.3251 93.6252 66.986 92.4184 67.8149 89.9756H72.3515H72.3224ZM67.9893 84.7846C67.7712 81.8765 64.4705 79.5209 59.9194 79.5209C55.1064 79.5209 52.242 81.9492 51.9075 84.7846H67.9893Z" fill="#1D1D1B"/>
<path d="M78.5195 77.2528H82.8817V81.1788C85.1064 78.1544 88.189 76.6858 93.1909 76.8166V80.0592C85.7607 80.0592 83.0126 82.8655 83.0126 87.5911V95.9665H78.5195V77.2528Z" fill="#1D1D1B"/>
<path d="M97.5508 77.2528H101.913V81.1788H102.029C104.239 78.1544 107.322 76.6858 112.295 76.8166V80.0592C104.894 80.0592 102.117 82.8655 102.117 87.5911V95.9665H97.5508V77.2528Z" fill="#1D1D1B"/>
<path d="M139.72 89.9756C138.455 94.1051 134.034 96.3589 127.753 96.3589C118.825 96.3589 114.666 92.2148 114.332 86.5149C114.332 80.9459 119.857 76.8164 127.506 76.8164C137.393 76.8164 140.418 82.9961 140.156 87.4891H119.232C119.087 90.7462 121.835 93.6252 127.956 93.6252C131.752 93.6252 134.383 92.4184 135.227 89.9756H139.763H139.72ZM135.401 84.7846C135.183 81.8765 131.882 79.5209 127.331 79.5209C122.518 79.5209 119.639 81.9492 119.319 84.7846H135.401Z" fill="#1D1D1B"/>
<path d="M162.883 70.1445H188.256V73.0381H168.016V81.2244H185.755V84.1034H168.016V95.9103H162.883V70.1445Z" fill="#1D1D1B"/>
<path d="M219.039 95.8354C217.979 96.2046 216.861 96.3818 215.739 96.3589C213.354 96.3589 211.856 95.4573 211.856 93.4507C208.984 95.4873 205.516 96.5104 201.998 96.3589C196.894 96.3589 192.75 94.9048 192.75 91.0952C192.75 86.8784 197.461 85.9769 202.201 85.3662C207.291 84.7119 211.624 84.9446 211.624 82.6326C211.624 79.9426 208.323 79.5209 205.4 79.5209C201.518 79.5209 198.639 80.3061 198.435 83.0543H193.841C194.102 78.4595 199.468 76.8164 205.677 76.8164C210.693 76.8164 216.175 77.5725 216.175 81.9492V91.6041C216.175 93.0582 216.175 93.6979 217.629 93.6979C218.118 93.6883 218.605 93.6298 219.083 93.5235V95.9081L219.039 95.8354ZM211.624 86.355C209.821 87.1983 206.374 87.2274 203.277 87.5909C200.18 87.9544 197.65 88.6669 197.65 90.9643C197.65 92.9709 200.267 93.6979 203.074 93.6979C209.137 93.6979 211.624 91.1679 211.624 89.4812V86.355Z" fill="#1D1D1B"/>
<path d="M224.551 70.1445H229.16V79.7849H229.262C230.716 77.7201 234.351 76.8768 238.204 76.8768C246.798 76.8768 251.073 81.4425 251.073 86.6916C251.073 91.9408 246.856 96.4192 238.292 96.4192C235.383 96.4192 231.327 95.6777 229.262 93.5111H229.16V95.9685H224.551V70.1445ZM237.55 79.5232C231.37 79.5232 229 83.0565 229 86.5462C229 90.036 231.487 93.6275 237.812 93.6275C244.137 93.6275 246.202 90.0505 246.202 86.3572C246.202 82.6639 243.497 79.5232 237.55 79.5232V79.5232Z" fill="#1D1D1B"/>
<path d="M257.367 77.2528H261.729V81.1788H261.831C264.027 78.1544 267.138 76.6858 272.111 76.8166V80.0592C264.71 80.0592 261.933 82.8655 261.933 87.5911V95.9665H257.367V77.2528Z" fill="#1D1D1B"/>
<path d="M299.533 89.9756C298.283 94.1051 293.848 96.3589 287.581 96.3589C278.653 96.3589 274.422 92.2148 274.16 86.5149C274.16 80.9459 279.686 76.8164 287.247 76.8164C297.134 76.8164 300.159 82.9961 299.897 87.4891H279.075C278.886 90.7462 281.649 93.6252 287.799 93.6252C291.58 93.6252 294.241 92.4184 295.069 89.9756H299.533ZM295.171 84.7846C294.968 81.8765 291.652 79.5209 287.116 79.5209C282.303 79.5209 279.424 81.9492 279.118 84.7846H295.171Z" fill="#1D1D1B"/>
</g>
<defs>
<linearGradient id="paint0_linear" x1="206.291" y1="94.2277" x2="241.185" y2="129.121" gradientUnits="userSpaceOnUse">
<stop stop-color="#001633"/>
<stop offset="0.12" stop-color="#002B56"/>
<stop offset="0.24" stop-color="#003E74"/>
<stop offset="0.38" stop-color="#004D8B"/>
<stop offset="0.52" stop-color="#00579C"/>
<stop offset="0.68" stop-color="#005DA6"/>
<stop offset="0.88" stop-color="#005FA9"/>
</linearGradient>
<linearGradient id="paint1_linear" x1="193.728" y1="96.2639" x2="237.102" y2="139.635" gradientUnits="userSpaceOnUse">
<stop offset="0.2" stop-color="#005FA9"/>
<stop offset="0.34" stop-color="#005CA5"/>
<stop offset="0.49" stop-color="#005598"/>
<stop offset="0.64" stop-color="#004883"/>
<stop offset="0.8" stop-color="#003566"/>
<stop offset="0.95" stop-color="#001E40"/>
<stop offset="1" stop-color="#001633"/>
</linearGradient>
<linearGradient id="paint2_linear" x1="210.715" y1="84.0808" x2="253.795" y2="127.161" gradientUnits="userSpaceOnUse">
<stop offset="0.2" stop-color="#005FA9"/>
<stop offset="0.34" stop-color="#005CA5"/>
<stop offset="0.49" stop-color="#005498"/>
<stop offset="0.64" stop-color="#004782"/>
<stop offset="0.8" stop-color="#003564"/>
<stop offset="0.96" stop-color="#001D3E"/>
<stop offset="1" stop-color="#001633"/>
</linearGradient>
<clipPath id="clip0">
<rect width="300" height="96.36" fill="white"/>
</clipPath>
</defs>
</svg>
