<svg width="220" height="112" viewBox="0 0 220 112" fill="none" xmlns="http://www.w3.org/2000/svg">
<path d="M50.2038 16.7695H60.4842V27.7843H50.3874C45.4307 27.7843 43.4113 28.5186 41.7591 29.9872C40.2905 31.4559 38.6383 34.7603 41.2084 38.2483C42.677 40.2677 47.4501 43.0214 53.8754 46.693C57.9141 49.0795 65.808 54.5869 65.9916 63.7658C66.1752 75.1478 53.5082 82.4909 53.5082 82.4909L51.1217 80.1044C52.5903 78.6358 54.9768 76.2492 55.1604 72.2105C55.344 67.2539 52.5903 61.93 47.0829 58.6256C41.392 55.1376 32.9473 49.8138 32.9473 49.8138C32.9473 49.8138 21.9326 43.5721 26.522 30.3544C29.0922 23.3784 34.416 19.8904 39.0054 18.2382C39.0054 18.2382 41.5755 17.1367 44.6964 16.7695C44.5128 16.9531 45.6143 16.7695 50.2038 16.7695Z" fill="#00A0E8"/>
<path d="M21.0148 84.3258H10V95.5242H27.0729C30.928 95.5242 33.3146 94.9734 33.3146 94.9734C37.7205 94.2391 43.4114 92.2198 47.083 87.4467C47.083 87.4467 51.4889 82.1229 51.4889 76.4319C51.6725 70.741 48.1845 65.05 39.3727 60.0934C30.5609 55.1367 30.3773 54.7696 30.3773 54.7696C30.3773 54.7696 22.8506 50.5472 21.5655 44.4891C20.6476 38.431 23.0341 35.1266 25.6042 32.74L23.5849 30.3535C23.5849 30.3535 10.7343 36.7788 10.7343 49.2622C10.7343 58.9919 20.6476 64.6829 22.8506 65.9679C22.8506 65.9679 25.0535 67.253 27.9908 69.0888C31.1116 70.9246 36.2518 73.6782 36.2518 77.717C36.0683 81.3886 34.0489 83.4079 29.0922 83.9587C29.0922 83.9587 26.8893 84.3258 21.0148 84.3258Z" fill="#004097"/>
<path d="M191.376 82.305V45.222H196.333C197.985 45.222 199.27 46.1399 199.27 47.9757V82.305H209V46.8742C209 43.3862 207.898 41.734 207.348 40.8161C206.797 39.8982 204.043 36.5938 199.821 36.5938H181.646V82.305C181.646 82.305 191.376 82.305 191.376 82.305Z" fill="#004097"/>
<path d="M108.949 82.305V45.222H113.906C115.558 45.222 116.843 46.1399 116.843 47.9757V82.305H126.573V46.8742C126.573 43.3862 125.472 41.734 124.921 40.8161C124.37 39.8982 121.616 36.5938 117.394 36.5938H99.2197V82.305C99.2197 82.305 108.949 82.305 108.949 82.305Z" fill="#004097"/>
<path d="M138.138 82.3061H149.336V73.6779H143.095C140.157 73.6779 140.341 71.2913 140.341 71.2913V45.2231H149.336V36.7784H140.341V25.5801L130.611 40.45V73.4943C130.611 77.533 132.631 79.5524 132.631 79.5524C132.631 79.5524 134.65 82.3061 138.138 82.3061Z" fill="#004097"/>
<path d="M176.322 39.531C174.67 37.3281 172.467 36.7773 169.897 36.7773H159.433C156.863 36.7773 154.66 37.3281 153.008 39.531C151.356 41.734 151.539 45.0384 151.539 45.0384V74.4111C151.539 74.4111 151.356 77.7155 154.109 80.2856C154.109 80.2856 156.129 82.305 159.25 82.305H176.506V73.6768H164.206C164.206 73.6768 162.738 73.8604 162.003 72.9425C162.003 72.9425 161.269 72.3917 161.269 70.9231V67.2515H170.081C170.081 67.2515 173.936 67.2515 175.772 65.2321C177.608 63.2128 177.975 60.6427 177.975 60.0919V45.0384C177.791 45.0384 177.975 41.734 176.322 39.531ZM168.245 56.0532C168.245 58.8069 165.308 58.6233 165.308 58.6233H161.269V47.7921C161.269 45.0384 164.206 45.222 164.206 45.222H165.308C165.308 45.222 168.245 45.0384 168.245 47.7921V56.0532" fill="#004097"/>
<path d="M92.9776 39.1639C91.8761 38.0624 90.0403 36.7773 87.2866 36.5938C87.1031 36.5938 87.1031 36.5938 86.9195 36.5938H69.8466V45.0384H82.33C84.1658 45.0384 85.4509 45.4056 85.4509 48.1593V51.2801H76.639C76.639 51.2801 73.8854 51.0965 71.866 52.7487C69.663 54.2174 69.2959 57.3382 69.2959 57.3382C69.2959 57.3382 68.9287 58.6233 68.9287 60.4591V74.5947C68.9287 79.1842 71.4988 80.8364 71.4988 80.8364C71.4988 80.8364 72.9675 82.305 76.8226 82.305H87.1031C90.9582 82.305 92.4269 80.8364 92.4269 80.8364C92.4269 80.8364 94.997 79.0006 94.997 74.5947V44.4877C94.997 42.6519 94.4462 41.3668 93.8955 40.4489C93.8955 40.2653 93.5283 39.7146 92.9776 39.1639ZM85.4509 71.4738C85.4509 72.5753 85.0837 73.4932 83.0643 73.4932H80.6778C79.3927 73.4932 78.4748 72.7589 78.4748 71.4738V62.4784C78.4748 61.9277 78.842 60.2755 80.8614 60.2755H85.4509C85.4509 60.2755 85.4509 70.3723 85.4509 71.4738Z" fill="#004097"/>
</svg>
