<svg width="275" height="112" viewBox="0 0 275 112" fill="none" xmlns="http://www.w3.org/2000/svg">
<path d="M102.818 11C103.662 11.5193 104.636 11.7789 105.609 12.1035C111.581 14.2455 117.488 16.3876 123.46 18.4647C123.655 18.5296 123.849 18.5946 123.979 18.7244C114.437 18.7244 104.895 18.7244 95.2236 18.7244C97.6253 16.063 100.027 13.5315 102.364 11C102.494 11 102.688 11 102.818 11Z" fill="#1072BA"/>
<path d="M214.465 51.504C164.873 51.504 115.347 51.504 65.625 51.504C66.5338 50.4654 67.3776 49.4918 68.2863 48.5181C69.7144 46.9603 71.0775 45.4024 72.5055 43.8445C72.7652 43.5849 72.9599 43.4551 73.3494 43.4551C77.5037 43.7147 81.6579 43.9744 85.8771 44.1691C92.3682 44.5586 98.8593 44.8831 105.35 45.2726C113.659 45.727 122.032 46.1813 130.341 46.7006C137.741 47.0901 145.141 47.5445 152.54 47.9339C159.94 48.3234 167.405 48.7778 174.805 49.1672C183.113 49.6216 191.487 50.076 199.795 50.5953C204.534 50.8549 209.337 51.1145 214.076 51.3742C214.206 51.3742 214.271 51.4391 214.465 51.504C214.465 51.4391 214.465 51.4391 214.465 51.504Z" fill="#1072BA"/>
<path d="M139.883 58.7739C138 60.851 136.313 62.7334 134.625 64.6159C134.495 64.7457 134.365 64.8755 134.235 65.0053C133.262 66.6281 131.899 66.8228 130.081 66.693C124.239 66.2386 118.462 65.979 112.62 65.5895C105.35 65.1351 98.0152 64.6808 90.7452 64.2264C85.098 63.9018 79.5156 63.5773 73.8684 63.2527C65.7546 62.7334 57.6407 62.2142 49.462 61.7598C43.8796 61.4352 38.3622 61.1107 32.7799 60.7861C25.5099 60.3318 18.175 59.8774 10.905 59.423C7.98402 59.2283 5.12795 59.0985 2.20696 58.9037C1.36313 58.8388 0.584197 58.7739 0 58.709C46.4112 58.7739 93.082 58.7739 139.883 58.7739Z" fill="#1C74BB"/>
<path d="M50.5001 17.2327C50.63 17.5573 50.3703 17.6871 50.2405 17.9468C48.4879 21.1923 46.7353 24.4378 44.9827 27.6834C44.8529 27.8781 44.7231 28.1377 44.5933 28.4623C48.8774 28.5921 53.0317 28.657 57.2509 28.7869C57.121 29.0465 56.9263 29.0465 56.7965 29.1114C53.2264 30.5394 49.7212 31.9026 46.1511 33.3306C45.5669 33.5902 45.6318 33.7201 46.0213 34.1095C48.7475 36.5112 51.4738 38.9778 54.265 41.3795C54.4597 41.5743 54.6544 41.769 54.7842 42.0936C50.8247 40.7953 46.93 39.4322 42.8407 38.134C43.4898 42.3532 44.074 46.5075 44.7231 50.6618C44.6582 50.6618 44.6582 50.7267 44.5933 50.7267C42.3863 47.1566 40.1793 43.5865 37.9724 39.9515C35.7005 43.6514 33.4935 47.2215 31.3515 50.7916C31.2866 50.7916 31.2866 50.7916 31.2216 50.7267C31.8708 46.5724 32.455 42.3532 33.1041 38.134C29.0796 39.4971 25.12 40.7953 21.0307 42.1585C21.4201 41.5094 21.8745 41.2497 22.3289 40.8602C24.8604 38.5884 27.3919 36.3165 29.9883 34.1095C30.5076 33.6552 30.3778 33.5253 29.7936 33.3306C26.2884 31.9675 22.7833 30.5394 19.2132 29.1763C19.0184 29.1114 18.8886 29.0465 18.7588 28.8518C22.9131 28.7219 27.1323 28.657 31.4164 28.5272C29.4041 24.8273 27.3919 21.1274 25.4446 17.4924C25.5095 17.4275 25.5095 17.4275 25.5744 17.3626C28.82 19.959 32.0655 22.5554 35.4408 25.2168C36.2847 20.9976 37.1285 16.8433 37.9724 12.7539C38.0373 12.7539 38.0373 12.7539 38.1022 12.7539C38.946 16.9082 39.7899 20.9976 40.6337 25.2168C42.4512 23.7887 44.2038 22.3607 45.9564 20.9976C47.4493 19.6344 48.8774 18.3362 50.5001 17.2327Z" fill="#1072BA"/>
<path d="M75.4258 40.5997C75.9451 40.0155 76.4644 39.4962 76.9187 38.9769C78.7362 36.9647 80.4888 35.0174 82.3063 33.0052C82.566 32.6806 82.8256 32.5508 83.28 32.5508C89.1219 33.0052 94.9639 33.4595 100.806 33.9139C107.167 34.4332 113.463 34.9525 119.825 35.4069C124.823 35.7963 129.821 36.1858 134.819 36.5752C140.531 37.0296 146.243 37.484 151.956 37.9384C156.24 38.2629 160.524 38.5875 164.808 38.912C169.871 39.3015 174.999 39.691 180.062 40.1453C181.944 40.2752 183.762 40.405 185.644 40.5997C148.97 40.5997 112.295 40.5997 75.4258 40.5997Z" fill="#1072BA"/>
<path d="M26.873 69.6797C61.1459 69.6797 95.4837 69.6797 130.016 69.6797C129.302 70.4586 128.653 71.1726 128.069 71.8867C126.446 73.7042 124.823 75.4567 123.265 77.2742C122.941 77.5988 122.681 77.7935 122.162 77.7286C115.411 77.1444 108.596 76.5602 101.845 76.0409C96.5872 75.5866 91.3294 75.1971 86.0067 74.7427C79.5156 74.2234 72.9597 73.6392 66.4686 73.12C61.2108 72.6656 55.953 72.2761 50.7602 71.8217C44.8533 71.3025 38.9464 70.8481 33.0396 70.3288C30.8975 70.0692 28.8204 70.0042 26.873 69.6797Z" fill="#1C74BB"/>
<path d="M191.551 88.0496C191.551 88.1145 191.616 88.1145 191.616 88.1145C193.628 88.5689 194.018 90.0618 193.953 91.7495C193.888 92.9179 193.888 94.1512 193.758 95.3196C193.628 96.4231 193.693 97.5265 193.953 98.5651C194.083 99.1493 193.888 99.2791 193.369 99.2791C191.551 99.2791 189.798 99.2142 187.981 99.2791C187.462 99.2791 187.202 99.0844 187.202 98.5651C187.137 97.1371 187.007 95.774 187.137 94.3459C187.332 92.0091 186.423 90.9706 184.086 90.9706C183.307 90.9706 182.399 90.7109 181.879 91.1004C181.36 91.4899 181.425 92.5284 181.295 93.2424C180.906 94.995 180.516 96.7476 180.192 98.5002C180.127 98.9546 179.932 99.2142 179.413 99.2142C177.66 99.1493 175.908 99.2142 174.09 99.2142C173.571 99.2142 173.506 99.0844 173.636 98.5651C175.258 91.2302 176.816 83.9602 178.374 76.6253C178.439 76.2358 178.569 76.0411 179.023 76.0411C183.307 76.106 187.591 75.9113 191.876 76.1709C192.525 76.2358 193.239 76.3657 193.823 76.5604C196.03 77.2744 197.068 79.2217 196.809 81.7532C196.549 84.3497 194.991 86.0374 192.849 87.2707C192.33 87.5952 191.941 87.7899 191.551 88.0496ZM185.19 85.9075C185.904 85.8426 186.618 85.8426 187.397 85.8426C187.656 85.8426 187.851 85.7777 188.111 85.7128C189.214 85.3882 189.993 84.2848 189.928 83.0515C189.863 82.0778 189.279 81.5585 188.046 81.3638C186.813 81.1041 185.514 81.2989 184.216 81.234C183.956 81.234 183.827 81.2989 183.762 81.6234C183.502 82.9216 183.242 84.1549 182.983 85.4532C182.918 85.9075 183.048 85.9724 183.437 85.9724C183.956 85.9075 184.606 85.9075 185.19 85.9075Z" fill="#1072BA"/>
<path d="M264.771 88.114C266.978 88.4385 267.302 89.9315 267.237 91.684C267.237 92.6577 267.237 93.6314 267.107 94.605C266.978 95.9681 266.913 97.2664 267.237 98.6295C267.367 99.0839 267.172 99.2137 266.718 99.2137C264.836 99.2137 262.953 99.2137 261.136 99.2137C260.616 99.2137 260.552 98.954 260.487 98.5646C260.357 97.0716 260.292 95.5138 260.422 93.9559C260.552 92.1384 259.578 91.0349 257.76 90.97C257.111 90.97 256.397 91.0349 255.748 90.97C255.099 90.9051 254.969 91.2297 254.839 91.749C254.385 94.0208 253.866 96.2278 253.411 98.4997C253.281 99.019 253.152 99.2137 252.567 99.2137C250.88 99.1488 249.127 99.2137 247.44 99.2137C246.92 99.2137 246.726 99.2137 246.855 98.5646C248.478 91.2946 250.036 83.9597 251.594 76.6897C251.724 76.1704 251.918 76.1055 252.373 76.1055C256.073 76.1055 259.773 76.1055 263.472 76.1055C264.836 76.1055 266.199 76.2353 267.497 76.7546C269.055 77.4686 269.834 78.637 269.964 80.3896C270.288 83.8948 268.406 85.9719 265.615 87.5298C265.42 87.6596 265.16 87.7894 264.901 87.8543C264.965 87.9841 264.965 87.9841 264.771 88.114ZM258.539 85.907C259.253 85.8421 259.967 85.907 260.616 85.8421C260.876 85.8421 261.071 85.7772 261.33 85.7123C262.499 85.4526 263.213 84.3491 263.213 83.1158C263.213 82.1422 262.564 81.6229 261.266 81.3632C260.032 81.1036 258.734 81.2983 257.501 81.2334C257.241 81.2334 257.111 81.2983 257.046 81.6229C256.787 82.9211 256.527 84.2193 256.267 85.5175C256.202 85.907 256.332 85.9719 256.657 85.9719C257.241 85.907 257.89 85.907 258.539 85.907Z" fill="#1072BA"/>
<path d="M136.767 91.8791C136.831 91.8791 136.896 91.8791 136.896 91.8791C137.416 91.8791 138 91.6843 138.324 91.8791C138.714 92.0738 138.324 92.5931 138.389 93.0475C138.519 93.9562 139.038 94.5404 139.882 94.8001C141.44 95.3193 142.933 95.2544 144.426 94.6702C145.335 94.3457 145.659 93.6966 145.659 92.7878C145.659 91.8791 145.14 91.4896 144.361 91.23C143.063 90.7756 141.7 90.6458 140.337 90.3212C139.298 90.0616 138.324 89.8019 137.416 89.3475C135.079 88.309 133.91 85.7775 134.495 83.3109C135.079 81.039 136.377 79.2864 138.324 78.0531C142.219 75.5865 146.373 75.3268 150.593 76.8198C153.319 77.7934 154.487 79.8706 154.292 82.5319C154.228 83.1161 154.033 83.3758 153.449 83.4407C151.696 83.5056 150.008 83.5705 148.256 83.6354C147.866 83.6354 147.672 83.5705 147.672 83.1161C147.607 82.0126 147.282 81.5583 146.244 81.2986C145.14 80.9741 143.972 81.039 142.868 81.3635C141.959 81.6232 141.44 82.2074 141.44 82.9863C141.44 83.895 142.024 84.2845 142.738 84.5442C143.777 84.9985 144.945 84.9985 146.114 85.1933C147.217 85.388 148.321 85.5827 149.359 86.0371C152.605 87.4002 153.708 89.737 152.735 93.1124C151.891 95.9035 150.073 97.8509 147.412 98.9543C143.712 100.577 139.882 100.707 136.117 99.4736C133.002 98.5 131.574 96.0334 131.963 92.7878C132.028 92.1387 132.288 91.8791 133.002 91.8791C134.105 91.944 135.403 91.8791 136.767 91.8791C136.767 91.944 136.702 91.8142 136.767 91.8791Z" fill="#1072BA"/>
<path d="M245.947 84.8684C245.622 86.4263 245.298 87.9192 244.973 89.4122C244.908 89.8665 244.649 89.9314 244.194 89.9314C241.273 89.9314 238.352 89.9314 235.496 89.9314C234.912 89.9314 234.653 90.1262 234.523 90.7104C234.328 91.8788 234.068 92.9823 233.809 94.1507C236.73 94.1507 239.651 94.1507 242.507 94.1507C243.221 94.1507 243.935 94.1507 244.714 94.1507C245.038 94.1507 245.168 94.2156 245.103 94.605C244.779 95.9681 244.454 97.3962 244.194 98.7593C244.065 99.2786 243.805 99.2786 243.416 99.2786C240.884 99.2786 238.352 99.2786 235.886 99.2786C232.9 99.2786 229.914 99.2786 226.928 99.2786C226.279 99.2786 226.214 99.1488 226.344 98.5646C227.902 91.3595 229.46 84.0895 231.018 76.8195C231.147 76.3002 231.342 76.1055 231.926 76.1055C237.379 76.1055 242.896 76.1055 248.349 76.1055C248.933 76.1055 249.128 76.1704 248.998 76.8195C248.673 78.0528 248.414 79.351 248.154 80.5843C248.089 81.1036 247.829 81.2334 247.31 81.2334C244.065 81.2334 240.754 81.2334 237.509 81.2334C236.86 81.2334 236.535 81.3632 236.47 82.0773C236.405 82.7913 236.21 83.5702 236.016 84.2842C235.886 84.8035 236.081 84.8035 236.47 84.8035C239.456 84.8035 242.377 84.8035 245.363 84.8035C245.558 84.8035 245.752 84.8684 245.947 84.8684Z" fill="#1072BA"/>
<path d="M162.082 99.2779C159.356 99.2779 156.564 99.2779 153.838 99.2779C153.254 99.2779 153.124 99.213 153.254 98.5639C154.877 91.2939 156.435 84.0239 157.992 76.7539C158.122 76.2346 158.317 76.1048 158.771 76.1697C164.289 76.1697 169.806 76.1697 175.259 76.1697C175.908 76.1697 176.038 76.3645 175.843 76.9486C175.583 78.182 175.259 79.3503 175.064 80.5836C174.934 81.2328 174.675 81.2977 174.09 81.2977C170.845 81.2977 167.534 81.2977 164.289 81.2977C163.705 81.2977 163.445 81.4275 163.38 82.0117C163.315 82.7257 163.12 83.5046 162.926 84.2187C162.731 84.8028 162.926 84.8678 163.445 84.8678C166.301 84.8678 169.222 84.8678 172.078 84.8678C172.792 84.8678 172.922 85.0625 172.727 85.7116C172.403 86.9449 172.143 88.1133 171.948 89.3466C171.883 89.8659 171.624 89.9957 171.104 89.9957C168.248 89.9957 165.327 89.9957 162.471 89.9957C161.887 89.9957 161.563 90.1255 161.498 90.7746C161.368 91.7483 161.173 92.657 160.913 93.5658C160.719 94.2798 160.978 94.2798 161.563 94.2798C164.678 94.2798 167.859 94.2798 170.975 94.2798C172.143 94.2798 172.143 94.2798 171.883 95.4482C171.624 96.5517 171.364 97.6552 171.169 98.8236C171.104 99.3428 170.845 99.4078 170.39 99.4078C167.599 99.2779 164.873 99.2779 162.082 99.2779Z" fill="#1072BA"/>
<path d="M154.877 29.6948C131.704 29.6948 108.596 29.6948 85.4875 29.6948C85.4226 29.5001 85.6173 29.3703 85.7471 29.2404C87.8892 26.8387 90.0313 24.502 92.1084 22.1003C92.4329 21.7108 92.6926 21.581 93.2119 21.7108C101.715 22.8143 110.218 23.9178 118.722 25.0212C125.408 25.8651 132.093 26.7089 138.779 27.5528C144.102 28.2019 149.425 28.9159 154.747 29.6299C154.812 29.565 154.812 29.6299 154.877 29.6948Z" fill="#1072BA"/>
<path d="M54.9795 80.584C76.5948 80.584 98.2749 80.584 120.15 80.584C119.566 81.2331 119.111 81.7524 118.657 82.2717C116.839 84.2839 115.022 86.2961 113.269 88.3084C113.01 88.6329 112.75 88.6978 112.296 88.6329C108.726 88.1136 105.155 87.6593 101.585 87.14C96.9118 86.4909 92.1733 85.8418 87.4998 85.1926C82.0473 84.4137 76.5948 83.6997 71.1423 82.9208C66.0792 82.2068 60.9513 81.4927 55.8882 80.8436C55.6286 80.7787 55.2391 80.6489 54.9795 80.584Z" fill="#1C74BB"/>
<path d="M206.026 91.359C207 89.3468 207.844 87.5293 208.753 85.7767C210.181 82.7908 211.674 79.74 213.102 76.7541C213.296 76.3647 213.556 76.1699 213.946 76.1699C215.958 76.1699 217.905 76.1699 219.917 76.1699C219.917 76.5594 219.658 76.819 219.463 77.1436C215.374 84.3487 211.219 91.4889 207.13 98.6939C206.87 99.1483 206.611 99.3431 206.026 99.3431C204.469 99.2781 202.911 99.2781 201.353 99.3431C200.769 99.3431 200.639 99.2132 200.509 98.629C199.925 94.4747 199.341 90.2555 198.692 86.1013C198.237 83.0505 197.848 79.9347 197.393 76.8839C197.328 76.3647 197.458 76.2348 197.978 76.2348C199.99 76.2348 202.002 76.2348 203.949 76.2348C204.404 76.2348 204.598 76.4296 204.598 76.819C204.988 81.1031 205.312 85.3872 205.702 89.6714C205.832 90.1257 205.897 90.645 206.026 91.359Z" fill="#1072BA"/>
<path d="M219.723 99.2786C218.879 99.2786 218.035 99.2786 217.127 99.2786C216.607 99.2786 216.478 99.1488 216.607 98.6295C217.451 94.7348 218.295 90.9051 219.139 87.0105C219.853 83.6351 220.632 80.2598 221.346 76.8195C221.476 76.2353 221.67 76.1055 222.19 76.1055C223.877 76.1055 225.565 76.1704 227.253 76.1055C227.902 76.1055 228.032 76.3002 227.902 76.8844C226.409 83.6351 224.981 90.3858 223.488 97.1365C223.358 97.7856 223.423 98.6944 222.969 99.0839C222.449 99.5382 221.541 99.2137 220.827 99.2137C220.437 99.2786 220.113 99.2786 219.723 99.2786Z" fill="#1072BA"/>
<path d="M110.283 91.4883C109.439 92.397 108.725 93.176 107.946 93.9549C106.388 95.5777 104.896 97.2653 103.338 98.8881C103.078 99.1477 102.883 99.2776 102.494 99.1477C95.5484 96.6811 88.6029 94.1496 81.6575 91.683C81.5277 91.6181 81.4628 91.5532 81.2031 91.4883C90.9397 91.4883 100.547 91.4883 110.283 91.4883Z" fill="#1C74BB"/>
<path d="M50.501 17.2314C50.501 17.1665 50.5659 17.1665 50.5659 17.1016V17.1665C50.5659 17.2963 50.501 17.2963 50.501 17.2314Z" fill="#1072BA"/>
</svg>
