<svg width="300" height="112" viewBox="0 0 300 112" fill="none" xmlns="http://www.w3.org/2000/svg">
<path d="M149.622 6.99976C54.4547 6.99976 4 74.4465 4 74.4465L24.6813 88.4046C24.6813 88.4046 27.182 82.1483 32.9129 73.1976C32.936 75.441 33.2448 77.0061 33.2448 77.0061C36.8994 105.346 64.4654 104.664 64.4654 104.664H235.353C235.353 104.664 263.286 105.431 266.933 77.1102C266.933 77.1102 267.23 75.6492 267.245 73.4211C272.86 82.1483 275.33 88.2157 275.33 88.2157L296 74.4041C296 74.4041 244.781 6.99976 149.622 6.99976Z" fill="#ED1C24"/>
<path d="M262.705 76.682C262.705 76.682 258.981 98.3535 234.997 98.3535H64.3867C40.4058 98.3535 37.029 76.4816 37.029 76.4816C36.1067 70.6763 37.2297 66.7021 39.0242 63.9536C56.294 41.2452 90.4669 10.7464 149.547 10.7464C209.129 10.7464 243.591 41.6847 260.853 64.3969C262.848 66.9295 263.597 71.0618 262.705 76.682Z" fill="white"/>
<path d="M99.7916 53.0573L102.64 46.9629H66.1436L63.28 53.0573H77.4201L62.7822 82.7891H72.2333L86.8634 53.0573H99.7916V53.0573Z" fill="#ED1C24"/>
<path d="M231.591 72.9265C228.878 76.7427 225.034 78.6778 223 77.2361C220.97 75.7906 221.53 71.5311 224.243 67.7149C226.956 63.8986 230.807 61.9597 232.833 63.4014C234.871 64.8508 234.304 69.1103 231.591 72.9265V72.9265ZM199.648 72.78C196.92 76.6039 193.076 78.5313 191.046 77.0896C189.028 75.648 189.568 71.3885 192.289 67.5645C195.014 63.7483 198.865 61.8171 200.883 63.2549C202.902 64.6966 202.361 68.9638 199.648 72.78ZM159.953 70.0046C159.953 70.0046 161.721 64.0798 167.44 61.7091C167.44 61.7091 169.068 61.1579 169.941 61.8711C169.941 61.8711 171.164 63.0467 169.709 65.2247C168.405 67.1675 165.271 70.683 161.871 71.8664C161.871 71.8664 158.788 73.2118 159.953 70.0046V70.0046ZM104.231 72.78C101.502 76.6039 97.6661 78.5313 95.64 77.0896C93.6101 75.648 94.1543 71.3885 96.8672 67.5645C99.588 63.7483 103.439 61.8171 105.465 63.2549C107.503 64.6966 106.936 68.9638 104.231 72.78ZM240.683 77.4212C240.683 77.4212 238.842 78.2769 238.051 77.452C237.26 76.6348 237.966 75.1122 237.966 75.1122L245.677 58.9183H237.816L236.612 61.0808C232.019 57.0449 223.382 59.1303 218.034 64.7159C214.942 67.9346 213.194 71.7547 212.959 75.0775C212.083 75.6557 210.62 76.5384 208.737 77.2785C208.737 77.2785 206.892 78.142 206.093 77.3094C205.302 76.4922 206.016 74.9618 206.016 74.9618L219.705 46.8221H211.851L204.662 60.9343C200.069 56.9061 191.44 58.9838 186.08 64.5694C184.995 65.7142 184.084 66.9131 183.328 68.1466L183.336 68.1196C183.286 68.2198 183.232 68.3278 183.178 68.4203C183.004 68.7132 182.838 68.9946 182.695 69.2799C178.423 76.6733 173.109 77.8991 173.109 77.8991C161.879 81.2528 160.598 75.7597 160.598 75.7597C173.175 71.1148 177.902 65.614 177.466 61.4046C177.041 57.1914 171.253 56.9716 171.253 56.9716C161.74 56.4011 153.504 63.0467 151.505 69.5497C150.903 71.5311 150.714 73.5664 151.085 75.4205C147.276 77.4481 145.084 77.7719 145.084 77.7719C141.919 78.7703 141.526 77.2708 141.151 76.3572C140.765 75.4205 139.334 67.3294 139.334 67.3294L152.69 58.6022H144.52L134.486 64.8161C132.225 65.7528 133.101 63.3783 133.101 63.3783L141.294 46.8105H133.425L120.134 73.709C118.606 74.6265 115.546 76.3996 113.315 77.2785C113.315 77.2785 111.474 78.142 110.683 77.3094C109.877 76.4922 110.594 74.9618 110.594 74.9618L118.313 58.7718H110.448L109.244 60.9343C104.655 56.9061 96.0144 58.9838 90.6656 64.5694C85.3052 70.1588 83.9391 77.5291 87.6053 81.0331C90.5344 83.8355 95.806 83.3112 100.537 80.131C100.537 80.131 101.73 79.1057 102.378 80.3045C103.046 81.5535 105.755 84.3751 111.995 81.9158C113.998 81.1333 115.793 80.2313 117.332 79.3832L115.704 82.6752H123.557L127.497 74.7228L130.921 72.5449C130.921 72.5449 131.97 71.72 132.383 73.4816C132.383 73.4816 134.085 80.1773 134.741 81.0408C135.405 81.9158 136.717 83.8933 142.243 82.309C146.477 81.087 150.421 79.5914 152.509 78.7009C154.357 81.2528 157.904 82.9759 163.747 82.9759C172.36 82.9759 178.454 78.8667 181.024 76.7273C181.209 78.4311 181.865 79.9267 183.027 81.0331C185.952 83.8355 191.22 83.3112 195.948 80.131C195.948 80.131 197.144 79.1057 197.8 80.3045C198.471 81.5535 201.169 84.3751 207.417 81.9158C210.284 80.7864 212.198 79.707 213.457 78.8667C213.796 79.7533 214.294 80.5281 214.969 81.1834C217.91 83.9742 223.17 83.4577 227.898 80.2698C227.898 80.2698 229.098 79.2406 229.754 80.451C230.414 81.6999 233.131 84.5255 239.363 82.0584C245.611 79.6029 247.398 77.3749 247.398 77.3749L245.823 74.5995C245.603 74.7228 243.682 76.2454 240.683 77.4211" fill="#ED1C24"/>
</svg>
