<svg width="112" height="32" viewBox="0 0 112 32" fill="none" xmlns="http://www.w3.org/2000/svg">
<path fill-rule="evenodd" clip-rule="evenodd" d="M21.7302 0H10.5935C4.75231 0 0 4.29511 0 9.57432V18.9799H4.46217V9.57432C4.46217 6.57146 7.27004 4.03437 10.5935 4.03437H13.9017V18.9799H18.37V4.03437H21.7302C25.0816 4.03437 27.8082 6.5197 27.8082 9.57432V18.9799H32.2712V9.57432C32.2712 4.29511 27.5425 0 21.7302 0Z" fill="#77BE80"/>
<path fill-rule="evenodd" clip-rule="evenodd" d="M65.3285 4.03437V0H46.4241C40.4838 0 35.8302 4.13156 35.8302 9.40563C35.8302 14.6848 40.5825 18.9799 46.4241 18.9799H65.3285V14.946H46.4241C43.9182 14.946 41.716 13.5692 40.7853 11.5101H61.1329V7.46983H40.7127C41.5871 5.41156 43.8182 4.03437 46.4241 4.03437H65.3285Z" fill="#628BC7"/>
<path fill-rule="evenodd" clip-rule="evenodd" d="M88.5386 0H69.4757V18.9799H88.5386C94.3807 18.9799 99.1339 14.6848 99.1339 9.40563C99.1339 4.13156 94.4799 0 88.5386 0ZM88.5386 14.9452H73.9391V4.03437H88.5386C91.963 4.03437 94.6451 6.39368 94.6451 9.40563C94.6451 12.4602 91.9058 14.9452 88.5386 14.9452Z" fill="#3B64A1"/>
<path fill-rule="evenodd" clip-rule="evenodd" d="M111.238 19.7846L101.996 15.1576C101.803 15.0608 101.633 15.0122 101.488 15.0122C101.399 15.0122 101.319 15.0308 101.249 15.0679C100.94 15.2327 100.936 15.7 100.936 15.7194V24.9101C100.936 25.2317 101.029 25.4438 101.21 25.5406C101.517 25.7038 101.972 25.4833 101.997 25.4715L111.238 20.8445C111.55 20.6885 111.708 20.5166 111.708 20.3345C111.708 20.0236 111.257 19.7944 111.238 19.7846Z" fill="#40B526"/>
<path fill-rule="evenodd" clip-rule="evenodd" d="M88.7016 31.5564H90.3376V22.1235H88.7016V31.5564Z" fill="#6B8495"/>
<path fill-rule="evenodd" clip-rule="evenodd" d="M79.5675 22.1235H69.4757V31.6145H79.5675C82.5633 31.6145 84.9962 29.4677 84.9962 26.8236C84.9962 24.1534 82.5633 22.1235 79.5675 22.1235ZM79.5675 30.1579H71.1265V23.5805H79.5675C81.6483 23.5805 83.331 24.9869 83.331 26.8236C83.331 28.6468 81.6483 30.1579 79.5675 30.1579Z" fill="#6B8495"/>
<path fill-rule="evenodd" clip-rule="evenodd" d="M65.2905 26.8256C65.2905 29.4697 62.9012 31.6177 59.8902 31.6177H56.5541C53.557 31.6177 51.1236 29.4697 51.1236 26.8256V22.1235H52.7748V26.8256C52.7748 28.6492 54.4873 30.1603 56.5541 30.1603H59.8902C61.957 30.1603 63.6393 28.6492 63.6393 26.8256V22.1235H65.2905V26.8256Z" fill="#6B8495"/>
<path fill-rule="evenodd" clip-rule="evenodd" d="M32.3346 22.1235V23.5797H38.9575V31.6192H40.6083V23.5797H47.2318V22.1235H32.3346Z" fill="#6B8495"/>
<path fill-rule="evenodd" clip-rule="evenodd" d="M29.3899 28.6721C29.3899 30.2875 27.872 31.6137 26.0424 31.6137H15.8903H14.7253L14.7249 30.1496C14.7249 30.1496 15.4472 30.1571 15.9047 30.1571H26.0424C26.9426 30.1571 27.7247 29.4669 27.7247 28.6721C27.7247 27.8772 26.9426 27.174 26.0424 27.174H16.4657C14.9163 27.174 13.5456 26.1204 13.5456 24.7076C13.5456 23.3067 14.887 22.1235 16.4657 22.1235H28.3277L28.3308 23.5825C28.3308 23.5825 27.179 23.5671 26.8097 23.5671H16.4657C15.8164 23.5671 15.2108 23.9866 15.2108 24.6025C15.2108 25.1928 15.802 25.717 16.4657 25.717H26.0424C27.872 25.717 29.3899 27.0567 29.3899 28.6721Z" fill="#6B8495"/>
<path fill-rule="evenodd" clip-rule="evenodd" d="M109.863 26.7228C109.863 28.5575 108.167 30.054 106.104 30.054H100.679C98.6004 30.054 96.9203 28.5575 96.9203 26.7228C96.9203 25.2394 98.0345 24.0238 99.5709 23.6236V22.1235C97.0999 22.5569 95.2559 24.4157 95.2559 26.7228C95.2559 29.3769 97.6718 31.5094 100.679 31.5094H106.104C109.097 31.5094 111.527 29.3769 111.527 26.7228C111.527 25.1932 110.709 23.8638 109.441 23.0128L107.804 23.8322C109.021 24.3608 109.863 25.4409 109.863 26.7228Z" fill="#6B8495"/>
</svg>
